<?xml version="1.0" encoding="UTF-8" standalone="no"?>
<svg
   version="1.1"
   viewBox="0.0 0.0 960.0 720.0"
   fill="none"
   stroke="none"
   stroke-linecap="square"
   stroke-miterlimit="10"
   id="svg115"
   sodipodi:docname="Forez-Lineage.svg"
   xml:space="preserve"
   inkscape:version="1.4 (e7c3feb1, 2024-10-09)"
   xmlns:inkscape="http://www.inkscape.org/namespaces/inkscape"
   xmlns:sodipodi="http://sodipodi.sourceforge.net/DTD/sodipodi-0.dtd"
   xmlns:xlink="http://www.w3.org/1999/xlink"
   xmlns="http://www.w3.org/2000/svg"
   xmlns:svg="http://www.w3.org/2000/svg"><defs
     id="defs115" /><sodipodi:namedview
     id="namedview115"
     pagecolor="#ffffff"
     bordercolor="#000000"
     borderopacity="0.25"
     inkscape:showpageshadow="2"
     inkscape:pageopacity="0.0"
     inkscape:pagecheckerboard="0"
     inkscape:deskcolor="#d1d1d1"
     inkscape:zoom="1.4142136"
     inkscape:cx="586.54508"
     inkscape:cy="497.80317"
     inkscape:window-width="1392"
     inkscape:window-height="803"
     inkscape:window-x="0"
     inkscape:window-y="25"
     inkscape:window-maximized="0"
     inkscape:current-layer="g115" /><clipPath
     id="p.0"><path
       d="m0 0l960.0 0l0 720.0l-960.0 0l0 -720.0z"
       clip-rule="nonzero"
       id="path1" /></clipPath><g
     clip-path="url(#p.0)"
     id="g115"><path
       fill="#000000"
       fill-opacity="0.0"
       d="m0 0l960.0 0l0 720.0l-960.0 0z"
       fill-rule="evenodd"
       id="path2" /><path
       fill="#cfe2f3"
       d="M 113.14961,25.532808 H 226.53543 V 101.12336 H 113.14961 Z"
       fill-rule="evenodd"
       id="path3" /><path
       stroke="#000000"
       stroke-width="1"
       stroke-linejoin="round"
       stroke-linecap="butt"
       d="M 113.14961,25.532808 H 226.53543 V 101.12336 H 113.14961 Z"
       fill-rule="evenodd"
       id="path4" /><path
       fill="#ffffff"
       d="m 567.021,334.84567 h 113.3858 v 75.59055 H 567.021 Z"
       fill-rule="evenodd"
       id="path54" /><path
       stroke="#000000"
       stroke-width="1"
       stroke-linejoin="round"
       stroke-linecap="butt"
       d="m 567.021,334.84567 h 113.3858 v 75.59055 H 567.021 Z"
       fill-rule="evenodd"
       id="path55" /><path
       fill="#000000"
       d="m 604.38327,378.78094 h -2.73438 l -1.07812,-2.8125 h -4.95313 l -1.03125,2.8125 h -2.65625 l 4.82813,-12.40625 h 2.65625 z m -4.625,-4.90625 -1.70313,-4.60938 -1.67187,4.60938 z m 5.09195,2.34375 2.39062,-0.35938 q 0.14063,0.6875 0.60938,1.04688 0.46875,0.35937 1.3125,0.35937 0.92187,0 1.375,-0.34375 0.3125,-0.23437 0.3125,-0.625 0,-0.28125 -0.15625,-0.45312 -0.1875,-0.17188 -0.79688,-0.3125 -2.875,-0.64063 -3.65625,-1.15625 -1.0625,-0.73438 -1.0625,-2.03125 0,-1.15625 0.92188,-1.95313 0.92187,-0.79687 2.85937,-0.79687 1.84375,0 2.73438,0.60937 0.90625,0.59375 1.25,1.76563 l -2.25,0.42187 q -0.14063,-0.53125 -0.54688,-0.8125 -0.39062,-0.28125 -1.14062,-0.28125 -0.9375,0 -1.34375,0.26563 -0.28125,0.1875 -0.28125,0.48437 0,0.25 0.25,0.4375 0.3125,0.23438 2.20312,0.67188 1.90625,0.42187 2.67188,1.04687 0.73437,0.64063 0.73437,1.76563 0,1.23437 -1.03125,2.125 -1.03125,0.89062 -3.04687,0.89062 -1.84375,0 -2.92188,-0.73437 -1.0625,-0.75 -1.39062,-2.03125 z m 10.48083,-7.64063 v -2.20312 h 2.375 v 2.20312 z m 0,10.20313 v -8.98438 h 2.375 v 8.98438 z m 10.72059,0 v -1.34375 q -0.48438,0.71875 -1.29688,1.14062 -0.79687,0.40625 -1.67187,0.40625 -0.90625,0 -1.625,-0.39062 -0.71875,-0.40625 -1.04688,-1.125 -0.32812,-0.71875 -0.32812,-1.98438 v -5.6875 h 2.39062 v 4.125 q 0,1.89063 0.125,2.32813 0.125,0.42187 0.46875,0.67187 0.35938,0.25 0.89063,0.25 0.60937,0 1.09375,-0.32812 0.48437,-0.34375 0.65625,-0.82813 0.17187,-0.5 0.17187,-2.42187 v -3.79688 h 2.375 v 8.98438 z m 6.94409,0 h -2.375 v -8.98438 h 2.20312 v 1.28125 q 0.57813,-0.90625 1.03125,-1.1875 0.45313,-0.29687 1.01563,-0.29687 0.8125,0 1.57812,0.45312 l -0.73437,2.0625 q -0.60938,-0.39062 -1.125,-0.39062 -0.5,0 -0.84375,0.28125 -0.34375,0.28125 -0.54688,1 -0.20312,0.71875 -0.20312,3 z m 6.24341,-6.25 -2.15625,-0.39063 q 0.375,-1.29687 1.25,-1.92187 0.89062,-0.625 2.64062,-0.625 1.59375,0 2.375,0.375 0.78125,0.375 1.09375,0.95312 0.3125,0.57813 0.3125,2.125 l -0.0156,2.78125 q 0,1.1875 0.10937,1.75 0.10938,0.5625 0.42188,1.20313 h -2.34375 q -0.0937,-0.23438 -0.23438,-0.70313 -0.0625,-0.20312 -0.0781,-0.28125 -0.60938,0.59375 -1.3125,0.89063 -0.6875,0.29687 -1.46875,0.29687 -1.39063,0 -2.1875,-0.75 -0.79688,-0.75 -0.79688,-1.90625 0,-0.76562 0.35938,-1.35937 0.35937,-0.59375 1.01562,-0.90625 0.65625,-0.32813 1.89063,-0.5625 1.67187,-0.3125 2.3125,-0.57813 v -0.23437 q 0,-0.6875 -0.34375,-0.98438 -0.32813,-0.29687 -1.28125,-0.29687 -0.625,0 -0.98438,0.25 -0.35937,0.25 -0.57812,0.875 z m 3.1875,1.9375 q -0.45313,0.15625 -1.45313,0.375 -0.98437,0.20312 -1.29687,0.40625 -0.45313,0.32812 -0.45313,0.82812 0,0.5 0.35938,0.875 0.375,0.35938 0.95312,0.35938 0.64063,0 1.23438,-0.42188 0.42187,-0.32812 0.5625,-0.79687 0.0937,-0.29688 0.0937,-1.15625 z m 6.44958,-1.9375 -2.15625,-0.39063 q 0.375,-1.29687 1.25,-1.92187 0.89063,-0.625 2.64063,-0.625 1.59375,0 2.375,0.375 0.78125,0.375 1.09375,0.95312 0.3125,0.57813 0.3125,2.125 l -0.0156,2.78125 q 0,1.1875 0.10938,1.75 0.10937,0.5625 0.42187,1.20313 h -2.34375 q -0.0937,-0.23438 -0.23437,-0.70313 -0.0625,-0.20312 -0.0781,-0.28125 -0.60937,0.59375 -1.3125,0.89063 -0.6875,0.29687 -1.46875,0.29687 -1.39062,0 -2.1875,-0.75 -0.79687,-0.75 -0.79687,-1.90625 0,-0.76562 0.35937,-1.35937 0.35938,-0.59375 1.01563,-0.90625 0.65625,-0.32813 1.89062,-0.5625 1.67188,-0.3125 2.3125,-0.57813 v -0.23437 q 0,-0.6875 -0.34375,-0.98438 -0.32812,-0.29687 -1.28125,-0.29687 -0.625,0 -0.98437,0.25 -0.35938,0.25 -0.57813,0.875 z m 3.1875,1.9375 q -0.45312,0.15625 -1.45312,0.375 -0.98438,0.20312 -1.29688,0.40625 -0.45312,0.32812 -0.45312,0.82812 0,0.5 0.35937,0.875 0.375,0.35938 0.95313,0.35938 0.64062,0 1.23437,-0.42188 0.42188,-0.32812 0.5625,-0.79687 0.0937,-0.29688 0.0937,-1.15625 z"
       fill-rule="nonzero"
       id="path56" /><path
       fill="#ffffff"
       d="m 698.51184,334.84567 h 113.3858 v 75.59055 h -113.3858 z"
       fill-rule="evenodd"
       id="path57" /><path
       stroke="#000000"
       stroke-width="1"
       stroke-linejoin="round"
       stroke-linecap="butt"
       d="m 698.51184,334.84567 h 113.3858 v 75.59055 h -113.3858 z"
       fill-rule="evenodd"
       id="path58" /><path
       fill="#000000"
       d="m 751.76807,378.78094 h -2.73438 l -1.07812,-2.8125 h -4.95313 l -1.03125,2.8125 h -2.65625 l 4.82813,-12.40625 h 2.65625 z m -4.625,-4.90625 -1.70313,-4.60938 -1.67187,4.60938 z m 5.93573,4.90625 v -12.40625 h 2.375 v 12.40625 z m 4.81427,-10.20313 v -2.20312 h 2.375 v 2.20312 z m 0,10.20313 v -8.98438 h 2.375 v 8.98438 z m 3.65808,0 3.25,-4.625 -3.10937,-4.35938 h 2.90625 l 1.59375,2.46875 1.67187,-2.46875 h 2.79688 l -3.04688,4.25 3.3125,4.73438 h -2.90625 l -1.82812,-2.78125 -1.84375,2.78125 z"
       fill-rule="nonzero"
       id="path59" /><path
       fill="#ffffff"
       d="m 565.2868,540.95794 h 113.3858 v 75.59055 H 565.2868 Z"
       fill-rule="evenodd"
       id="path57-6" /><path
       stroke="#000000"
       stroke-width="1"
       stroke-linejoin="round"
       stroke-linecap="butt"
       d="m 565.2868,540.95794 h 113.3858 v 75.59055 H 565.2868 Z"
       fill-rule="evenodd"
       id="path58-7" /><path
       fill="#000000"
       d="m 618.54303,584.89321 h -2.73438 l -1.07812,-2.8125 h -4.95313 l -1.03125,2.8125 h -2.65625 l 4.82813,-12.40625 h 2.65625 z m -4.625,-4.90625 -1.70313,-4.60938 -1.67187,4.60938 z m 5.93573,4.90625 v -12.40625 h 2.375 v 12.40625 z m 4.81427,-10.20313 v -2.20312 h 2.375 v 2.20312 z m 0,10.20313 v -8.98438 h 2.375 v 8.98438 z m 3.65808,0 3.25,-4.625 -3.10937,-4.35938 h 2.90625 l 1.59375,2.46875 1.67187,-2.46875 h 2.79688 l -3.04688,4.25 3.3125,4.73438 h -2.90625 l -1.82812,-2.78125 -1.84375,2.78125 z"
       fill-rule="nonzero"
       id="path59-2" /><path
       fill="#ffffff"
       d="M 567.021,437.95065 H 680.4068 V 513.5412 H 567.021 Z"
       fill-rule="evenodd"
       id="path60" /><path
       stroke="#000000"
       stroke-width="1"
       stroke-linejoin="round"
       stroke-linecap="butt"
       d="M 567.021,437.95065 H 680.4068 V 513.5412 H 567.021 Z"
       fill-rule="evenodd"
       id="path61" /><path
       fill="#000000"
       d="m 588.87643,481.88593 v -12.40625 h 4.01563 q 2.28125,0 2.98437,0.1875 1.0625,0.28125 1.78125,1.21875 0.71875,0.9375 0.71875,2.40625 0,1.14062 -0.42187,1.92187 -0.40625,0.78125 -1.04688,1.23438 -0.64062,0.4375 -1.29687,0.57812 -0.90625,0.1875 -2.60938,0.1875 h -1.625 v 4.67188 z m 2.5,-10.3125 v 3.53125 h 1.375 q 1.46875,0 1.96875,-0.1875 0.5,-0.20313 0.78125,-0.60938 0.29688,-0.42187 0.29688,-0.96875 0,-0.6875 -0.40625,-1.125 -0.39063,-0.4375 -1,-0.54687 -0.45313,-0.0937 -1.8125,-0.0937 z m 11.40146,-2.09375 v 4.5625 q 1.15625,-1.34375 2.75,-1.34375 0.82812,0 1.48437,0.3125 0.65625,0.29687 0.98438,0.78125 0.34375,0.46875 0.46875,1.04687 0.125,0.5625 0.125,1.78125 v 5.26563 h -2.375 v -4.75 q 0,-1.40625 -0.14063,-1.78125 -0.14062,-0.39063 -0.48437,-0.60938 -0.34375,-0.23437 -0.85938,-0.23437 -0.59375,0 -1.0625,0.29687 -0.45312,0.28125 -0.67187,0.85938 -0.21875,0.57812 -0.21875,1.71875 v 4.5 h -2.375 v -12.40625 z m 8.22534,2.20312 v -2.20312 h 2.375 v 2.20312 z m 0,10.20313 v -8.98438 h 2.375 v 8.98438 z m 4.81433,0 v -12.40625 h 2.375 v 12.40625 z m 4.81433,-10.20313 v -2.20312 h 2.375 v 2.20312 z m 0,10.20313 v -8.98438 h 2.375 v 8.98438 z m 4.73615,-8.98438 h 2.21875 v 1.3125 q 0.4375,-0.67187 1.17187,-1.09375 0.73438,-0.42187 1.625,-0.42187 1.57813,0 2.65625,1.23437 1.09375,1.21875 1.09375,3.40625 0,2.25 -1.10937,3.5 -1.09375,1.25 -2.65625,1.25 -0.73438,0 -1.34375,-0.29687 -0.60938,-0.29688 -1.28125,-1.01563 v 4.53125 h -2.375 z m 2.35937,4.34375 q 0,1.51563 0.59375,2.23438 0.60938,0.71875 1.46875,0.71875 0.82813,0 1.375,-0.65625 0.54688,-0.67188 0.54688,-2.1875 0,-1.40625 -0.5625,-2.09375 -0.5625,-0.6875 -1.40625,-0.6875 -0.875,0 -1.45313,0.67187 -0.5625,0.67188 -0.5625,2 z m 8.22535,-4.34375 h 2.21875 v 1.3125 q 0.4375,-0.67187 1.17187,-1.09375 0.73438,-0.42187 1.625,-0.42187 1.57813,0 2.65625,1.23437 1.09375,1.21875 1.09375,3.40625 0,2.25 -1.10937,3.5 -1.09375,1.25 -2.65625,1.25 -0.73438,0 -1.34375,-0.29687 -0.60938,-0.29688 -1.28125,-1.01563 v 4.53125 h -2.375 z m 2.35937,4.34375 q 0,1.51563 0.59375,2.23438 0.60938,0.71875 1.46875,0.71875 0.82813,0 1.375,-0.65625 0.54688,-0.67188 0.54688,-2.1875 0,-1.40625 -0.5625,-2.09375 -0.5625,-0.6875 -1.40625,-0.6875 -0.875,0 -1.45313,0.67187 -0.5625,0.67188 -0.5625,2 z m 8.30347,-5.5625 v -2.20312 h 2.375 v 2.20312 z m 0,10.20313 v -8.98438 h 2.375 v 8.98438 z m 10.01745,-2.85938 2.35938,0.39063 q -0.45313,1.3125 -1.4375,2 -0.98438,0.67187 -2.46875,0.67187 -2.34375,0 -3.46875,-1.53125 -0.89063,-1.23437 -0.89063,-3.09375 0,-2.23437 1.17188,-3.5 1.17187,-1.26562 2.95312,-1.26562 2,0 3.15625,1.32812 1.17188,1.3125 1.10938,4.04688 h -5.95313 q 0.0312,1.0625 0.57813,1.65625 0.54687,0.57812 1.375,0.57812 0.54687,0 0.92187,-0.29687 0.39063,-0.3125 0.59375,-0.98438 z m 0.125,-2.40625 q -0.0156,-1.03125 -0.53125,-1.5625 -0.5,-0.54687 -1.23437,-0.54687 -0.78125,0 -1.28125,0.57812 -0.51563,0.5625 -0.5,1.53125 z"
       fill-rule="nonzero"
       id="path62" /><path
       fill="#ffffff"
       d="m 698.51184,437.50314 h 113.3858 v 75.59055 h -113.3858 z"
       fill-rule="evenodd"
       id="path63" /><path
       stroke="#000000"
       stroke-width="1"
       stroke-linejoin="round"
       stroke-linecap="butt"
       d="m 698.51184,437.50314 h 113.3858 v 75.59055 h -113.3858 z"
       fill-rule="evenodd"
       id="path64" /><path
       fill="#000000"
       d="m 709.693,481.15842 v -11.45313 h 8.48437 v 1.9375 h -6.17187 v 2.53125 h 5.75 v 1.9375 h -5.75 v 3.10938 h 6.39062 v 1.9375 z m 12.75,0 h -2.1875 v -8.29688 h 2.03125 v 1.17188 q 0.53125,-0.82813 0.9375,-1.09375 0.42187,-0.26563 0.95312,-0.26563 0.75,0 1.45313,0.40625 l -0.6875,1.92188 q -0.54688,-0.35938 -1.03125,-0.35938 -0.45313,0 -0.78125,0.25 -0.3125,0.25 -0.5,0.92188 -0.1875,0.65625 -0.1875,2.78125 z m 3.96094,-8.29688 h 2.03125 v 1.125 q 1.07812,-1.3125 2.57812,-1.3125 0.79688,0 1.375,0.32813 0.59375,0.32812 0.96875,0.98437 0.54688,-0.65625 1.17188,-0.98437 0.64062,-0.32813 1.35937,-0.32813 0.92188,0 1.54688,0.375 0.64062,0.35938 0.95312,1.07813 0.21875,0.53125 0.21875,1.71875 v 5.3125 h -2.1875 v -4.75 q 0,-1.23438 -0.23437,-1.59375 -0.29688,-0.46875 -0.9375,-0.46875 -0.45313,0 -0.85938,0.28125 -0.40625,0.28125 -0.59375,0.82812 -0.17187,0.54688 -0.17187,1.71875 v 3.98438 h -2.20313 v -4.54688 q 0,-1.21875 -0.125,-1.5625 -0.10937,-0.35937 -0.35937,-0.53125 -0.23438,-0.17187 -0.65625,-0.17187 -0.51563,0 -0.92188,0.28125 -0.40625,0.26562 -0.57812,0.78125 -0.17188,0.51562 -0.17188,1.71875 v 4.03125 h -2.20312 z m 19.19531,5.65625 2.1875,0.35938 q -0.42188,1.20312 -1.32813,1.84375 -0.90625,0.625 -2.28125,0.625 -2.15625,0 -3.20312,-1.42188 -0.8125,-1.125 -0.8125,-2.85937 0,-2.0625 1.07812,-3.21875 1.07813,-1.17188 2.71875,-1.17188 1.85938,0 2.92188,1.21875 1.07812,1.21875 1.03125,3.75 h -5.5 q 0.0156,0.96875 0.51562,1.51563 0.51563,0.54687 1.28125,0.54687 0.51563,0 0.85938,-0.28125 0.35937,-0.28125 0.53125,-0.90625 z m 0.125,-2.21875 q -0.0156,-0.95312 -0.48438,-1.45312 -0.46875,-0.5 -1.14062,-0.5 -0.71875,0 -1.1875,0.53125 -0.46875,0.51562 -0.46875,1.42187 z m 11.52344,4.85938 h -2.20313 v -4.23438 q 0,-1.34375 -0.14062,-1.73437 -0.14063,-0.40625 -0.45313,-0.625 -0.3125,-0.21875 -0.76562,-0.21875 -0.5625,0 -1.01563,0.3125 -0.45312,0.3125 -0.625,0.82812 -0.17187,0.51563 -0.17187,1.90625 v 3.76563 h -2.1875 v -8.29688 h 2.03125 v 1.21875 q 1.09375,-1.40625 2.73437,-1.40625 0.73438,0 1.32813,0.26563 0.60937,0.25 0.90625,0.65625 0.3125,0.40625 0.4375,0.92187 0.125,0.51563 0.125,1.48438 z m 2.02343,0.54687 2.5,0.3125 q 0.0625,0.4375 0.29688,0.59375 0.3125,0.23438 0.98437,0.23438 0.85938,0 1.28125,-0.25 0.29688,-0.17188 0.4375,-0.5625 0.10938,-0.26563 0.10938,-1.01563 v -1.20312 q -0.98438,1.34375 -2.48438,1.34375 -1.67187,0 -2.65625,-1.42188 -0.76562,-1.10937 -0.76562,-2.78125 0,-2.07812 1,-3.17187 1.01562,-1.10938 2.5,-1.10938 1.54687,0 2.54687,1.34375 v -1.15625 h 2.04688 v 7.4375 q 0,1.48438 -0.25,2.20313 -0.23438,0.73437 -0.67188,1.14062 -0.4375,0.42188 -1.17187,0.65625 -0.71875,0.23438 -1.84375,0.23438 -2.10938,0 -3,-0.73438 -0.875,-0.71875 -0.875,-1.82812 0,-0.10938 0.0156,-0.26563 z m 1.95313,-4.875 q 0,1.32813 0.51562,1.9375 0.51563,0.60938 1.26563,0.60938 0.79687,0 1.34375,-0.625 0.5625,-0.625 0.5625,-1.85938 0,-1.29687 -0.53125,-1.92187 -0.53125,-0.625 -1.34375,-0.625 -0.78125,0 -1.29688,0.625 -0.51562,0.60937 -0.51562,1.85937 z m 9.66406,-1.4375 -2,-0.35937 q 0.34375,-1.20313 1.15625,-1.78125 0.82813,-0.57813 2.4375,-0.57813 1.46875,0 2.1875,0.34375 0.71875,0.34375 1.01563,0.89063 0.29687,0.53125 0.29687,1.95312 l -0.0312,2.5625 q 0,1.09375 0.10938,1.625 0.10937,0.51563 0.39062,1.10938 h -2.17187 q -0.0781,-0.21875 -0.20313,-0.65625 -0.0625,-0.1875 -0.0781,-0.25 -0.5625,0.54687 -1.20313,0.82812 -0.64062,0.26563 -1.375,0.26563 -1.28125,0 -2.01562,-0.6875 -0.73438,-0.70313 -0.73438,-1.76563 0,-0.70312 0.32813,-1.25 0.34375,-0.5625 0.9375,-0.84375 0.60937,-0.29687 1.75,-0.51562 1.54687,-0.29688 2.14062,-0.54688 v -0.21875 q 0,-0.625 -0.3125,-0.89062 -0.3125,-0.28125 -1.1875,-0.28125 -0.57812,0 -0.90625,0.23437 -0.32812,0.23438 -0.53125,0.8125 z m 2.9375,1.78125 q -0.42187,0.14063 -1.34375,0.34375 -0.90625,0.1875 -1.1875,0.375 -0.4375,0.29688 -0.4375,0.76563 0,0.46875 0.34375,0.8125 0.34375,0.32812 0.875,0.32812 0.59375,0 1.14063,-0.39062 0.39062,-0.29688 0.51562,-0.73438 0.0937,-0.28125 0.0937,-1.0625 z m 6.41406,3.98438 h -2.1875 v -8.29688 h 2.03125 v 1.17188 q 0.53125,-0.82813 0.9375,-1.09375 0.42188,-0.26563 0.95313,-0.26563 0.75,0 1.45312,0.40625 l -0.6875,1.92188 q -0.54687,-0.35938 -1.03125,-0.35938 -0.45312,0 -0.78125,0.25 -0.3125,0.25 -0.5,0.92188 -0.1875,0.65625 -0.1875,2.78125 z m 11.74219,0 h -2.04687 v -1.21875 q -0.5,0.70312 -1.20313,1.0625 -0.6875,0.34375 -1.39062,0.34375 -1.42188,0 -2.45313,-1.15625 -1.01562,-1.15625 -1.01562,-3.21875 0,-2.10938 0.98437,-3.20313 1,-1.09375 2.51563,-1.09375 1.39062,0 2.40625,1.15625 v -4.125 h 2.20312 z m -5.85937,-4.32813 q 0,1.32813 0.35937,1.92188 0.53125,0.85937 1.48438,0.85937 0.76562,0 1.29687,-0.64062 0.53125,-0.65625 0.53125,-1.9375 0,-1.42188 -0.51562,-2.04688 -0.51563,-0.64062 -1.32813,-0.64062 -0.78125,0 -1.3125,0.625 -0.51562,0.625 -0.51562,1.85937 z m 12.82031,1.6875 2.1875,0.35938 q -0.42188,1.20312 -1.32813,1.84375 -0.90625,0.625 -2.28125,0.625 -2.15625,0 -3.20312,-1.42188 -0.8125,-1.125 -0.8125,-2.85937 0,-2.0625 1.07812,-3.21875 1.07813,-1.17188 2.71875,-1.17188 1.85938,0 2.92188,1.21875 1.07812,1.21875 1.03125,3.75 h -5.5 q 0.0156,0.96875 0.51562,1.51563 0.51563,0.54687 1.28125,0.54687 0.51563,0 0.85938,-0.28125 0.35937,-0.28125 0.53125,-0.90625 z m 0.125,-2.21875 q -0.0156,-0.95312 -0.48438,-1.45312 -0.46875,-0.5 -1.14062,-0.5 -0.71875,0 -1.1875,0.53125 -0.46875,0.51562 -0.46875,1.42187 z"
       fill-rule="nonzero"
       id="path65" /><path
       fill="#ffffff"
       d="m 830.0026,437.50314 h 113.3858 v 75.59055 H 830.0026 Z"
       fill-rule="evenodd"
       id="path66" /><path
       stroke="#000000"
       stroke-width="1"
       stroke-linejoin="round"
       stroke-linecap="butt"
       d="m 830.0026,437.50314 h 113.3858 v 75.59055 H 830.0026 Z"
       fill-rule="evenodd"
       id="path67" /><path
       fill="#000000"
       d="m 855.19855,471.93842 v -12.40625 h 3.73437 l 2.25,8.46875 2.23438,-8.46875 h 3.75 v 12.40625 h -2.32813 v -9.76563 l -2.45312,9.76563 h -2.42188 l -2.45312,-9.76563 v 9.76563 z m 16.2157,-6.25 -2.15625,-0.39063 q 0.375,-1.29687 1.25,-1.92187 0.89062,-0.625 2.64062,-0.625 1.59375,0 2.375,0.375 0.78125,0.375 1.09375,0.95312 0.3125,0.57813 0.3125,2.125 l -0.0156,2.78125 q 0,1.1875 0.10937,1.75 0.10938,0.5625 0.42188,1.20313 h -2.34375 q -0.0937,-0.23438 -0.23438,-0.70313 -0.0625,-0.20312 -0.0781,-0.28125 -0.60938,0.59375 -1.3125,0.89063 -0.6875,0.29687 -1.46875,0.29687 -1.39063,0 -2.1875,-0.75 -0.79688,-0.75 -0.79688,-1.90625 0,-0.76562 0.35938,-1.35937 0.35937,-0.59375 1.01562,-0.90625 0.65625,-0.32813 1.89063,-0.5625 1.67187,-0.3125 2.3125,-0.57813 v -0.23437 q 0,-0.6875 -0.34375,-0.98438 -0.32813,-0.29687 -1.28125,-0.29687 -0.625,0 -0.98438,0.25 -0.35937,0.25 -0.57812,0.875 z m 3.1875,1.9375 q -0.45313,0.15625 -1.45313,0.375 -0.98437,0.20312 -1.29687,0.40625 -0.45313,0.32812 -0.45313,0.82812 0,0.5 0.35938,0.875 0.375,0.35938 0.95312,0.35938 0.64063,0 1.23438,-0.42188 0.42187,-0.32812 0.5625,-0.79687 0.0937,-0.29688 0.0937,-1.15625 z m 7.04333,-8.09375 v 4.5625 q 1.15625,-1.34375 2.75,-1.34375 0.82813,0 1.48438,0.3125 0.65625,0.29687 0.98437,0.78125 0.34375,0.46875 0.46875,1.04687 0.125,0.5625 0.125,1.78125 v 5.26563 h -2.375 v -4.75 q 0,-1.40625 -0.14062,-1.78125 -0.14063,-0.39063 -0.48438,-0.60938 -0.34375,-0.23437 -0.85937,-0.23437 -0.59375,0 -1.0625,0.29687 -0.45313,0.28125 -0.67188,0.85938 -0.21875,0.57812 -0.21875,1.71875 v 4.5 h -2.375 v -12.40625 z m 9.99097,6.15625 -2.15625,-0.39063 q 0.375,-1.29687 1.25,-1.92187 0.89062,-0.625 2.64062,-0.625 1.59375,0 2.375,0.375 0.78125,0.375 1.09375,0.95312 0.3125,0.57813 0.3125,2.125 l -0.0156,2.78125 q 0,1.1875 0.10937,1.75 0.10938,0.5625 0.42188,1.20313 h -2.34375 q -0.0937,-0.23438 -0.23438,-0.70313 -0.0625,-0.20312 -0.0781,-0.28125 -0.60938,0.59375 -1.3125,0.89063 -0.6875,0.29687 -1.46875,0.29687 -1.39063,0 -2.1875,-0.75 -0.79688,-0.75 -0.79688,-1.90625 0,-0.76562 0.35938,-1.35937 0.35937,-0.59375 1.01562,-0.90625 0.65625,-0.32813 1.89063,-0.5625 1.67187,-0.3125 2.3125,-0.57813 v -0.23437 q 0,-0.6875 -0.34375,-0.98438 -0.32813,-0.29687 -1.28125,-0.29687 -0.625,0 -0.98438,0.25 -0.35937,0.25 -0.57812,0.875 z m 3.1875,1.9375 q -0.45313,0.15625 -1.45313,0.375 -0.98437,0.20312 -1.29687,0.40625 -0.45313,0.32812 -0.45313,0.82812 0,0.5 0.35938,0.875 0.375,0.35938 0.95312,0.35938 0.64063,0 1.23438,-0.42188 0.42187,-0.32812 0.5625,-0.79687 0.0937,-0.29688 0.0937,-1.15625 z m 10.59021,4.3125 v -1.34375 q -0.48438,0.71875 -1.29688,1.14062 -0.79687,0.40625 -1.67187,0.40625 -0.90625,0 -1.625,-0.39062 -0.71875,-0.40625 -1.04688,-1.125 -0.32812,-0.71875 -0.32812,-1.98438 v -5.6875 h 2.39062 v 4.125 q 0,1.89063 0.125,2.32813 0.125,0.42187 0.46875,0.67187 0.35938,0.25 0.89063,0.25 0.60937,0 1.09375,-0.32812 0.48437,-0.34375 0.65625,-0.82813 0.17187,-0.5 0.17187,-2.42187 v -3.79688 h 2.375 v 8.98438 z m 4.67847,0 v -12.40625 h 2.375 v 12.40625 z m 8.9237,-8.98438 v 1.89063 h -1.625 v 3.625 q 0,1.09375 0.0469,1.28125 0.0469,0.1875 0.20312,0.3125 0.17188,0.10937 0.42188,0.10937 0.32812,0 0.95312,-0.23437 l 0.20313,1.84375 q -0.82813,0.35937 -1.875,0.35937 -0.65625,0 -1.17188,-0.21875 -0.51562,-0.21875 -0.76562,-0.54687 -0.23438,-0.34375 -0.3125,-0.9375 -0.0781,-0.40625 -0.0781,-1.67188 v -3.92187 h -1.09375 v -1.89063 h 1.09375 v -1.78125 l 2.375,-1.39062 v 3.17187 z"
       fill-rule="nonzero"
       id="path68" /><path
       fill="#000000"
       d="m 855.00024,491.65842 h -1.40625 v -8.96875 q -0.51563,0.48437 -1.34375,0.96875 -0.8125,0.48437 -1.46875,0.73437 v -1.35937 q 1.17187,-0.5625 2.04687,-1.34375 0.89063,-0.79688 1.26563,-1.53125 h 0.90625 z m 7.71094,0 h -1.40625 v -8.96875 q -0.51563,0.48437 -1.34375,0.96875 -0.8125,0.48437 -1.46875,0.73437 v -1.35937 q 1.17187,-0.5625 2.04687,-1.34375 0.89063,-0.79688 1.26563,-1.53125 h 0.90625 z m 5.75781,-6.21875 q -0.875,-0.3125 -1.29688,-0.90625 -0.42187,-0.59375 -0.42187,-1.42188 0,-1.25 0.89062,-2.09375 0.90625,-0.85937 2.40625,-0.85937 1.5,0 2.40625,0.875 0.92188,0.85937 0.92188,2.10937 0,0.79688 -0.42188,1.39063 -0.42187,0.59375 -1.26562,0.90625 1.04687,0.34375 1.59375,1.10937 0.5625,0.76563 0.5625,1.82813 0,1.46875 -1.04688,2.48437 -1.03125,1 -2.73437,1 -1.6875,0 -2.73438,-1 -1.03125,-1.01562 -1.03125,-2.51562 0,-1.125 0.5625,-1.875 0.5625,-0.75 1.60938,-1.03125 z m -0.28125,-2.375 q 0,0.8125 0.51562,1.32812 0.53125,0.51563 1.375,0.51563 0.8125,0 1.32813,-0.51563 0.51562,-0.51562 0.51562,-1.25 0,-0.78125 -0.53125,-1.29687 -0.53125,-0.53125 -1.32812,-0.53125 -0.8125,0 -1.34375,0.51562 -0.53125,0.51563 -0.53125,1.23438 z m -0.45313,5.28125 q 0,0.60937 0.28125,1.17187 0.29688,0.5625 0.85938,0.875 0.5625,0.29688 1.20312,0.29688 1.01563,0 1.67188,-0.64063 0.65625,-0.65625 0.65625,-1.65625 0,-1.01562 -0.6875,-1.67187 -0.67188,-0.67188 -1.6875,-0.67188 -0.98438,0 -1.64063,0.65625 -0.65625,0.65625 -0.65625,1.64063 z m 9.63282,-2.90625 q -0.875,-0.3125 -1.29688,-0.90625 -0.42187,-0.59375 -0.42187,-1.42188 0,-1.25 0.89062,-2.09375 0.90625,-0.85937 2.40625,-0.85937 1.5,0 2.40625,0.875 0.92188,0.85937 0.92188,2.10937 0,0.79688 -0.42188,1.39063 -0.42187,0.59375 -1.26562,0.90625 1.04687,0.34375 1.59375,1.10937 0.5625,0.76563 0.5625,1.82813 0,1.46875 -1.04688,2.48437 -1.03125,1 -2.73437,1 -1.6875,0 -2.73438,-1 -1.03125,-1.01562 -1.03125,-2.51562 0,-1.125 0.5625,-1.875 0.5625,-0.75 1.60938,-1.03125 z m -0.28125,-2.375 q 0,0.8125 0.51562,1.32812 0.53125,0.51563 1.375,0.51563 0.8125,0 1.32813,-0.51563 0.51562,-0.51562 0.51562,-1.25 0,-0.78125 -0.53125,-1.29687 -0.53125,-0.53125 -1.32812,-0.53125 -0.8125,0 -1.34375,0.51562 -0.53125,0.51563 -0.53125,1.23438 z m -0.45313,5.28125 q 0,0.60937 0.28125,1.17187 0.29688,0.5625 0.85938,0.875 0.5625,0.29688 1.20312,0.29688 1.01563,0 1.67188,-0.64063 0.65625,-0.65625 0.65625,-1.65625 0,-1.01562 -0.6875,-1.67187 -0.67188,-0.67188 -1.6875,-0.67188 -0.98438,0 -1.64063,0.65625 -0.65625,0.65625 -0.65625,1.64063 z m 7.32031,-0.125 v -1.42188 h 4.3125 v 1.42188 z m 10.78125,3.4375 h -1.40625 v -8.96875 q -0.51562,0.48437 -1.34375,0.96875 -0.8125,0.48437 -1.46875,0.73437 v -1.35937 q 1.17188,-0.5625 2.04688,-1.34375 0.89062,-0.79688 1.26562,-1.53125 h 0.90625 z m 10.99219,-1.35938 v 1.35938 h -7.57812 q -0.0156,-0.51563 0.17187,-0.98438 0.28125,-0.76562 0.92188,-1.51562 0.64062,-0.75 1.84375,-1.73438 1.85937,-1.53125 2.51562,-2.42187 0.65625,-0.90625 0.65625,-1.70313 0,-0.82812 -0.59375,-1.40625 -0.59375,-0.57812 -1.5625,-0.57812 -1.01562,0 -1.625,0.60937 -0.60937,0.60938 -0.60937,1.6875 l -1.45313,-0.14062 q 0.15625,-1.625 1.125,-2.46875 0.96875,-0.84375 2.59375,-0.84375 1.65625,0 2.60938,0.92187 0.96875,0.90625 0.96875,2.25 0,0.6875 -0.28125,1.35938 -0.28125,0.65625 -0.9375,1.39062 -0.65625,0.73438 -2.17188,2.01563 -1.26562,1.0625 -1.625,1.45312 -0.35937,0.375 -0.59375,0.75 z m 1.50781,-1.64062 1.46875,-0.125 q 0.17188,1.07812 0.76563,1.625 0.59375,0.53125 1.4375,0.53125 1.01562,0 1.71875,-0.76563 0.70312,-0.76562 0.70312,-2.03125 0,-1.20312 -0.67187,-1.89062 -0.67188,-0.70313 -1.76563,-0.70313 -0.6875,0 -1.23437,0.3125 -0.54688,0.3125 -0.85938,0.79688 l -1.3125,-0.17188 1.10938,-5.875 h 5.6875 v 1.34375 h -4.5625 l -0.625,3.07813 q 1.03125,-0.71875 2.17187,-0.71875 1.5,0 2.53125,1.04687 1.03125,1.03125 1.03125,2.65625 0,1.5625 -0.90625,2.6875 -1.10937,1.40625 -3.01562,1.40625 -1.5625,0 -2.54688,-0.875 -0.98437,-0.89062 -1.125,-2.32812 z m 8.99219,-6.95313 v -1.35937 h 7.40625 v 1.09375 q -1.09375,1.17187 -2.17187,3.10937 -1.0625,1.92188 -1.65625,3.95313 -0.42188,1.4375 -0.53125,3.15625 h -1.45313 q 0.0312,-1.35938 0.53125,-3.26563 0.51563,-1.92187 1.45313,-3.6875 0.95312,-1.78125 2.03125,-3 z"
       fill-rule="nonzero"
       id="path69" /><path
       fill="#000000"
       fill-opacity="0"
       d="m 548.91602,63.328083 h 18.11023"
       fill-rule="evenodd"
       id="path70" /><path
       stroke="#000000"
       stroke-width="1"
       stroke-linejoin="round"
       stroke-linecap="butt"
       d="m 548.91602,63.328083 h 18.11023"
       fill-rule="evenodd"
       id="path71" /><path
       fill="#000000"
       fill-opacity="0"
       d="m 492.22308,101.12336 v 27.52756"
       fill-rule="evenodd"
       id="path72" /><path
       stroke="#000000"
       stroke-width="1"
       stroke-linejoin="round"
       stroke-linecap="butt"
       d="m 492.22308,101.12336 v 27.52756"
       fill-rule="evenodd"
       id="path73" /><path
       stroke="#000000"
       stroke-width="1"
       stroke-linejoin="round"
       stroke-linecap="butt"
       d="m 303,101 v 27.52756"
       fill-rule="evenodd"
       id="path73-3" /><path
       fill="#000000"
       fill-opacity="0"
       d="M 755.2047,513.0937 492.21257,541.06221"
       fill-rule="evenodd"
       id="path74" /><path
       stroke="#000000"
       stroke-width="1"
       stroke-linejoin="round"
       stroke-linecap="butt"
       d="M 755.2047,513.0937 492.21257,541.06221"
       fill-rule="evenodd"
       id="path75" /><path
       fill="#000000"
       fill-opacity="0"
       d="m 755.2047,513.0937 v 27.96851"
       fill-rule="evenodd"
       id="path76" /><path
       stroke="#000000"
       stroke-width="1"
       stroke-linejoin="round"
       stroke-linecap="butt"
       d="m 755.2047,513.0937 v 27.96851"
       fill-rule="evenodd"
       id="path77" /><path
       fill="#000000"
       fill-opacity="0"
       d="M 755.2047,410.43622 492.21257,437.96378"
       fill-rule="evenodd"
       id="path78" /><path
       stroke="#000000"
       stroke-width="1"
       stroke-linejoin="round"
       stroke-linecap="butt"
       d="M 755.2047,410.43622 492.21257,437.96378"
       fill-rule="evenodd"
       id="path79" /><path
       stroke="#000000"
       stroke-width="0.693803"
       stroke-linejoin="round"
       stroke-linecap="butt"
       d="M 303.20774,101.92408 163.38849,126.84804"
       fill-rule="evenodd"
       id="path79-7" /><path
       fill="#000000"
       fill-opacity="0"
       d="m 548.91602,372.64148 h 18.11023"
       fill-rule="evenodd"
       id="path80" /><path
       stroke="#000000"
       stroke-width="1"
       stroke-linejoin="round"
       stroke-linecap="butt"
       d="m 548.91602,372.64148 h 18.11023"
       fill-rule="evenodd"
       id="path81" /><path
       fill="#000000"
       fill-opacity="0"
       d="m 680.4068,372.64093 h 18.11029"
       fill-rule="evenodd"
       id="path82" /><path
       stroke="#000000"
       stroke-width="1"
       stroke-linejoin="round"
       stroke-linecap="butt"
       d="m 680.4068,372.64093 h 18.11029"
       fill-rule="evenodd"
       id="path83" /><path
       fill="#000000"
       fill-opacity="0"
       d="m 548.91602,475.74594 h 18.11023"
       fill-rule="evenodd"
       id="path84" /><path
       stroke="#000000"
       stroke-width="1"
       stroke-linejoin="round"
       stroke-linecap="butt"
       d="m 548.91602,475.74594 h 18.11023"
       fill-rule="evenodd"
       id="path85" /><path
       stroke="#000000"
       stroke-width="1"
       stroke-linejoin="round"
       stroke-linecap="butt"
       d="m 547.10051,580.2193 h 18.11023"
       fill-rule="evenodd"
       id="path85-8" /><path
       fill="#000000"
       fill-opacity="0"
       d="m 680.4068,475.74594 18.11029,-0.44095"
       fill-rule="evenodd"
       id="path86" /><path
       stroke="#000000"
       stroke-width="1"
       stroke-linejoin="round"
       stroke-linecap="butt"
       d="m 680.4068,475.74594 18.11029,-0.44095"
       fill-rule="evenodd"
       id="path87" /><path
       fill="#000000"
       fill-opacity="0"
       d="M 830.0026,475.29843 H 811.89237"
       fill-rule="evenodd"
       id="path88" /><path
       stroke="#000000"
       stroke-width="1"
       stroke-linejoin="round"
       stroke-linecap="butt"
       d="M 830.0026,475.29843 H 811.89237"
       fill-rule="evenodd"
       id="path89" /><path
       fill="#000000"
       fill-opacity="0"
       d="m 226.53543,63.328083 h 19.30708"
       fill-rule="evenodd"
       id="path98" /><path
       stroke="#000000"
       stroke-width="1"
       stroke-linejoin="round"
       stroke-linecap="butt"
       d="m 226.53543,63.328083 h 19.30708"
       fill-rule="evenodd"
       id="path99" /><path
       fill="#000000"
       fill-opacity="0"
       d="m 113.14961,109.66666 h 113.38582 v 50.07875 H 113.14961 Z"
       fill-rule="evenodd"
       id="path100" /><path
       fill="#000000"
       d="m 40.350114,64.307539 q -0.78125,1.21875 -1.1875,2.6875 l -2.43749,-1.51563 h -2.73438 v 6.1875 l 1.54688,2.25 q -1.29688,0.20313 -2.64063,1.1875 -1.39062,-1.01562 -2.6875,-1.1875 0.73438,-0.98437 1.60938,-2.25 v -6.1875 h -2.8125 l -2.4375,1.59375 q -0.32813,-1.48437 -1.1875,-2.60937 0.85937,-1.1875 1.23437,-2.60938 l 2.23438,1.5 h 2.96875 v -3.29687 l -1.60938,-2.17188 q 1.34375,-0.23437 2.64063,-1.34375 1.51562,1.0625 2.6875,1.28125 l -1.54688,2.34375 v 3.1875 h 2.70312 l 2.35938,-1.51562 q 0.25,1.34375 1.29687,2.46875 z m -6.71874,-5.54688 v -0.95312 h -1.39063 v 0.95312 z m 5.34374,6.35938 v -1.35938 h -0.95312 v 1.35938 z m -4.24999,-0.5 v -0.40625 h -1.625 v -1.96875 h -0.40625 v 1.96875 h -1.60938 v 0.40625 h 1.60937 v 4.85937 h 0.40625 v -4.85937 z m -7.09375,0.5 v -1.35938 h -0.95313 v 1.35938 z m 6,8.8125 v -0.95313 h -1.39063 v 0.95313 z"
       fill-rule="nonzero"
       id="path101" /><path
       fill="#000000"
       d="m 50.273914,75.104409 v -18.125 h 12.23438 v 2.14063 h -9.82813 v 5.60937 h 8.5 v 2.14062 h -8.5 v 8.23438 z m 15.08081,-15.57812 v -2.54688 h 2.21875 v 2.54688 z m 0,15.57812 v -13.14063 h 2.21875 v 13.14063 z m 5.58023,0 v -13.14063 h 2 v 2 q 0.78125,-1.40625 1.42188,-1.84375 0.65625,-0.45312 1.4375,-0.45312 1.125,0 2.28125,0.71875 l -0.76563,2.07812 q -0.8125,-0.48437 -1.64062,-0.48437 -0.71875,0 -1.3125,0.4375 -0.57813,0.4375 -0.82813,1.21875 -0.35937,1.1875 -0.35937,2.59375 v 6.875 z m 7.57509,-3.92188 2.20313,-0.34375 q 0.1875,1.32813 1.03125,2.03125 0.84375,0.70313 2.35937,0.70313 1.54688,0 2.28125,-0.625 0.75,-0.625 0.75,-1.46875 0,-0.75 -0.65625,-1.1875 -0.46875,-0.29688 -2.28125,-0.75 -2.45312,-0.625 -3.40625,-1.07813 -0.9375,-0.45312 -1.42187,-1.25 -0.48438,-0.79687 -0.48438,-1.75 0,-0.89062 0.39063,-1.625 0.40625,-0.75 1.09375,-1.25 0.53125,-0.39062 1.42187,-0.65625 0.89063,-0.26562 1.92188,-0.26562 1.54687,0 2.71875,0.45312 1.17187,0.4375 1.71875,1.20313 0.5625,0.76562 0.76562,2.03125 l -2.17187,0.29687 q -0.14063,-1.01562 -0.85938,-1.57812 -0.71875,-0.5625 -2.01562,-0.5625 -1.53125,0 -2.1875,0.5 -0.65625,0.5 -0.65625,1.1875 0,0.4375 0.28125,0.78125 0.26562,0.35937 0.84375,0.59375 0.34375,0.125 1.96875,0.5625 2.35937,0.64062 3.29687,1.04687 0.9375,0.39063 1.46875,1.15625 0.53125,0.76563 0.53125,1.90625 0,1.10938 -0.65625,2.09375 -0.64062,0.98438 -1.875,1.53125 -1.21875,0.53125 -2.76562,0.53125 -2.5625,0 -3.90625,-1.0625 -1.32813,-1.0625 -1.70313,-3.15625 z m 18.41406,1.9375 0.3125,1.95313 q -0.9375,0.20312 -1.67187,0.20312 -1.21875,0 -1.89063,-0.375 -0.65625,-0.39062 -0.9375,-1.01562 -0.26562,-0.625 -0.26562,-2.625 v -7.5625 h -1.64063 v -1.73438 h 1.64063 v -3.24999 l 2.21875,-1.32813 v 4.57812 h 2.23437 v 1.73438 h -2.23437 v 7.6875 q 0,0.95312 0.10937,1.23437 0.125,0.26563 0.39063,0.42188 0.26562,0.15625 0.75,0.15625 0.375,0 0.98437,-0.0781 z"
       fill-rule="nonzero"
       id="path102" /><path
       fill="#000000"
       fill-opacity="0"
       d="M 284.40158,346.70734 H 413.8504 v 50.07877 H 284.40158 Z"
       fill-rule="evenodd"
       id="path103" /><path
       fill="#000000"
       d="m 309.18283,369.23047 q -0.78125,1.21875 -1.1875,2.6875 l -2.4375,-1.51562 h -2.73438 v 6.1875 l 1.54688,2.25 q -1.29688,0.20312 -2.64063,1.1875 -1.39062,-1.01563 -2.6875,-1.1875 0.73438,-0.98438 1.60938,-2.25 v -6.1875 h -2.8125 l -2.4375,1.59375 q -0.32813,-1.48438 -1.1875,-2.60938 0.85937,-1.1875 1.23437,-2.60937 l 2.23438,1.5 h 2.96875 v -3.29688 l -1.60938,-2.17187 q 1.34375,-0.23438 2.64063,-1.34375 1.51562,1.0625 2.6875,1.28125 l -1.54688,2.34375 v 3.1875 h 2.70313 l 2.35937,-1.51563 q 0.25,1.34375 1.29688,2.46875 z m -6.71875,-5.54687 v -0.95313 h -1.39063 v 0.95313 z m 5.34375,6.35937 v -1.35937 h -0.95313 v 1.35937 z m -4.25,-0.5 v -0.40625 h -1.625 v -1.96875 h -0.40625 v 1.96875 h -1.60938 v 0.40625 h 1.60938 v 4.85938 h 0.40625 v -4.85938 z m -7.09375,0.5 v -1.35937 h -0.95313 v 1.35937 z m 6,8.8125 v -0.95312 h -1.39063 v 0.95312 z"
       fill-rule="nonzero"
       id="path104" /><path
       fill="#000000"
       d="m 319.10663,380.02734 v -18.125 H 331.341 v 2.14062 h -9.82812 v 5.60938 h 8.5 v 2.14062 h -8.5 v 8.23438 z m 14.23706,-6.5625 q 0,-3.65625 2.03125,-5.40625 1.6875,-1.46875 4.125,-1.46875 2.70313,0 4.42188,1.78125 1.71875,1.78125 1.71875,4.90625 0,2.53125 -0.76563,3.98437 -0.75,1.45313 -2.20312,2.26563 -1.45313,0.79687 -3.17188,0.79687 -2.76562,0 -4.46875,-1.76562 -1.6875,-1.76563 -1.6875,-5.09375 z m 2.28125,0 q 0,2.51562 1.09375,3.78125 1.10938,1.25 2.78125,1.25 1.65625,0 2.75,-1.26563 1.10938,-1.26562 1.10938,-3.84375 0,-2.4375 -1.10938,-3.6875 -1.10937,-1.26562 -2.75,-1.26562 -1.67187,0 -2.78125,1.25 -1.09375,1.25 -1.09375,3.78125 z m 21.24256,6.5625 v -1.92188 q -1.53125,2.21875 -4.17188,2.21875 -1.15625,0 -2.17187,-0.4375 -1,-0.45312 -1.5,-1.125 -0.48438,-0.67187 -0.6875,-1.65625 -0.125,-0.65625 -0.125,-2.07812 v -8.14063 H 350.43 v 7.29688 q 0,1.73437 0.14062,2.34375 0.20313,0.875 0.875,1.375 0.6875,0.5 1.6875,0.5 1.01563,0 1.89063,-0.5 0.875,-0.51563 1.23437,-1.40625 0.375,-0.89063 0.375,-2.5625 v -7.04688 h 2.21875 v 13.14063 z m 5.44567,0 v -13.14063 h 2 v 2 q 0.78125,-1.40625 1.42188,-1.84375 0.65625,-0.45312 1.4375,-0.45312 1.125,0 2.28125,0.71875 l -0.76563,2.07812 q -0.8125,-0.48437 -1.64062,-0.48437 -0.71875,0 -1.3125,0.4375 -0.57813,0.4375 -0.82813,1.21875 -0.35937,1.1875 -0.35937,2.59375 v 6.875 z m 13.32508,-1.98438 0.3125,1.95313 q -0.9375,0.20312 -1.67188,0.20312 -1.21875,0 -1.89062,-0.375 -0.65625,-0.39062 -0.9375,-1.01562 -0.26563,-0.625 -0.26563,-2.625 v -7.5625 h -1.64062 v -1.73438 h 1.64062 v -3.25 l 2.21875,-1.32812 v 4.57812 h 2.23438 v 1.73438 h -2.23438 v 7.6875 q 0,0.95312 0.10938,1.23437 0.125,0.26563 0.39062,0.42188 0.26563,0.15625 0.75,0.15625 0.375,0 0.98438,-0.0781 z m 2.17761,1.98438 v -18.125 h 2.21875 v 6.5 q 1.5625,-1.8125 3.9375,-1.8125 1.45312,0 2.53125,0.57812 1.07812,0.57813 1.54687,1.59375 0.46875,1.01563 0.46875,2.9375 v 8.32813 h -2.23437 v -8.32813 q 0,-1.67187 -0.73438,-2.42187 -0.71875,-0.76563 -2.03125,-0.76563 -1,0 -1.875,0.51563 -0.85937,0.51562 -1.23437,1.39062 -0.375,0.875 -0.375,2.42188 v 7.1875 z"
       fill-rule="nonzero"
       id="path105" /><path
       fill="#000000"
       fill-opacity="0"
       d="M 284.40158,450.25986 H 413.8504 v 50.07873 H 284.40158 Z"
       fill-rule="evenodd"
       id="path106" /><path
       fill="#000000"
       d="m 309.18283,472.78296 q -0.78125,1.21875 -1.1875,2.6875 l -2.4375,-1.51563 h -2.73438 v 6.1875 l 1.54688,2.25 q -1.29688,0.20313 -2.64063,1.1875 -1.39062,-1.01562 -2.6875,-1.1875 0.73438,-0.98437 1.60938,-2.25 v -6.1875 h -2.8125 l -2.4375,1.59375 q -0.32813,-1.48437 -1.1875,-2.60937 0.85937,-1.1875 1.23437,-2.60938 l 2.23438,1.5 h 2.96875 v -3.29687 l -1.60938,-2.17188 q 1.34375,-0.23437 2.64063,-1.34375 1.51562,1.0625 2.6875,1.28125 l -1.54688,2.34375 v 3.1875 h 2.70313 l 2.35937,-1.51562 q 0.25,1.34375 1.29688,2.46875 z m -6.71875,-5.54688 v -0.95312 h -1.39063 v 0.95312 z m 5.34375,6.35938 v -1.35938 h -0.95313 v 1.35938 z m -4.25,-0.5 v -0.40625 h -1.625 v -1.96875 h -0.40625 v 1.96875 h -1.60938 v 0.40625 h 1.60938 v 4.85937 h 0.40625 v -4.85937 z m -7.09375,0.5 v -1.35938 h -0.95313 v 1.35938 z m 6,8.8125 v -0.95313 h -1.39063 v 0.95313 z"
       fill-rule="nonzero"
       id="path107" /><path
       fill="#000000"
       d="m 318.88788,483.57983 v -18.125 h 6.79687 q 2.07813,0 3.32813,0.54688 1.26562,0.54687 1.96875,1.70312 0.71875,1.14063 0.71875,2.375 0,1.17188 -0.64063,2.20313 -0.625,1.01562 -1.90625,1.65625 1.65625,0.46875 2.53125,1.64062 0.89063,1.15625 0.89063,2.75 0,1.26563 -0.54688,2.35938 -0.53125,1.09375 -1.32812,1.6875 -0.78125,0.59375 -1.98438,0.90625 -1.1875,0.29687 -2.92187,0.29687 z m 2.39062,-10.51562 h 3.92188 q 1.59375,0 2.29687,-0.20313 0.90625,-0.28125 1.375,-0.90625 0.46875,-0.625 0.46875,-1.57812 0,-0.90625 -0.4375,-1.59375 -0.4375,-0.6875 -1.25,-0.9375 -0.79687,-0.25 -2.75,-0.25 h -3.625 z m 0,8.375 h 4.51563 q 1.17187,0 1.64062,-0.0781 0.82813,-0.15625 1.375,-0.5 0.5625,-0.34375 0.92188,-1 0.35937,-0.67187 0.35937,-1.53125 0,-1.01562 -0.53125,-1.76562 -0.51562,-0.75 -1.4375,-1.04688 -0.92187,-0.3125 -2.64062,-0.3125 h -4.20313 z m 22.87804,0.51562 q -1.23437,1.0625 -2.375,1.5 -1.14062,0.42188 -2.45312,0.42188 -2.17188,0 -3.32813,-1.04688 -1.15625,-1.0625 -1.15625,-2.71875 0,-0.95312 0.4375,-1.75 0.4375,-0.79687 1.14063,-1.28125 0.71875,-0.48437 1.60937,-0.73437 0.65625,-0.17188 1.96875,-0.32813 2.70313,-0.32812 3.96875,-0.76562 0.0156,-0.46875 0.0156,-0.59375 0,-1.35938 -0.625,-1.90625 -0.85938,-0.76563 -2.53125,-0.76563 -1.57813,0 -2.32813,0.5625 -0.75,0.54688 -1.10937,1.9375 l -2.17188,-0.29687 q 0.29688,-1.39063 0.96875,-2.25 0.6875,-0.85938 1.96875,-1.32813 1.29688,-0.46875 2.98438,-0.46875 1.6875,0 2.73437,0.40625 1.04688,0.39063 1.54688,1 0.5,0.59375 0.6875,1.5 0.125,0.57813 0.125,2.0625 v 2.96875 q 0,3.09375 0.14062,3.92188 0.14063,0.82812 0.5625,1.57812 h -2.32812 q -0.34375,-0.6875 -0.45313,-1.625 z m -0.1875,-4.96875 q -1.20312,0.5 -3.625,0.84375 -1.375,0.20313 -1.95312,0.45313 -0.5625,0.23437 -0.875,0.71875 -0.29688,0.46875 -0.29688,1.04687 0,0.89063 0.67188,1.48438 0.67187,0.59375 1.96875,0.59375 1.28125,0 2.28125,-0.5625 1,-0.5625 1.48437,-1.53125 0.34375,-0.75 0.34375,-2.23438 z m 5.68005,6.59375 v -13.14062 h 1.99999 v 2 q 0.78125,-1.40625 1.42187,-1.84375 0.65625,-0.45313 1.4375,-0.45313 1.125,0 2.28125,0.71875 l -0.76562,2.07813 q -0.8125,-0.48438 -1.64063,-0.48438 -0.71875,0 -1.3125,0.4375 -0.57812,0.4375 -0.82812,1.21875 -0.35938,1.1875 -0.35938,2.59375 v 6.875 z m 7.63759,-6.5625 q 0,-3.65625 2.03125,-5.40625 1.6875,-1.46875 4.125,-1.46875 2.70313,0 4.42188,1.78125 1.71875,1.78125 1.71875,4.90625 0,2.53125 -0.76563,3.98438 -0.75,1.45312 -2.20312,2.26562 -1.45313,0.79688 -3.17188,0.79688 -2.76562,0 -4.46875,-1.76563 -1.6875,-1.76562 -1.6875,-5.09375 z m 2.28125,0 q 0,2.51563 1.09375,3.78125 1.10938,1.25 2.78125,1.25 1.65625,0 2.75,-1.26562 1.10938,-1.26563 1.10938,-3.84375 0,-2.4375 -1.10938,-3.6875 -1.10937,-1.26563 -2.75,-1.26563 -1.67187,0 -2.78125,1.25 -1.09375,1.25 -1.09375,3.78125 z m 12.63318,6.5625 v -13.14062 h 2 v 1.875 q 1.45313,-2.17188 4.1875,-2.17188 1.1875,0 2.17188,0.4375 1,0.42188 1.48437,1.125 0.5,0.6875 0.70313,1.64063 0.125,0.60937 0.125,2.15625 v 8.07812 h -2.23438 v -7.98437 q 0,-1.35938 -0.26562,-2.03125 -0.25,-0.6875 -0.90625,-1.07813 -0.65625,-0.40625 -1.54688,-0.40625 -1.42187,0 -2.46875,0.90625 -1.03125,0.89063 -1.03125,3.42188 v 7.17187 z m 13.19568,-3.92187 2.20313,-0.34375 q 0.1875,1.32812 1.03125,2.03125 0.84375,0.70312 2.35937,0.70312 1.54688,0 2.28125,-0.625 0.75,-0.625 0.75,-1.46875 0,-0.75 -0.65625,-1.1875 -0.46875,-0.29687 -2.28125,-0.75 -2.45312,-0.625 -3.40625,-1.07812 -0.9375,-0.45313 -1.42187,-1.25 -0.48438,-0.79688 -0.48438,-1.75 0,-0.89063 0.39063,-1.625 0.40625,-0.75 1.09375,-1.25 0.53125,-0.39063 1.42187,-0.65625 0.89063,-0.26563 1.92188,-0.26563 1.54687,0 2.71875,0.45313 1.17187,0.4375 1.71875,1.20312 0.5625,0.76563 0.76562,2.03125 l -2.17187,0.29688 q -0.14063,-1.01563 -0.85938,-1.57813 -0.71875,-0.5625 -2.01562,-0.5625 -1.53125,0 -2.1875,0.5 -0.65625,0.5 -0.65625,1.1875 0,0.4375 0.28125,0.78125 0.26562,0.35938 0.84375,0.59375 0.34375,0.125 1.96875,0.5625 2.35937,0.64063 3.29687,1.04688 0.9375,0.39062 1.46875,1.15625 0.53125,0.76562 0.53125,1.90625 0,1.10937 -0.65625,2.09375 -0.64062,0.98437 -1.875,1.53125 -1.21875,0.53125 -2.76562,0.53125 -2.5625,0 -3.90625,-1.0625 -1.32813,-1.0625 -1.70313,-3.15625 z m 13.41406,-11.8125 v -2.57813 h 2.39063 v 2.03125 q 0,1.65625 -0.39063,2.39063 -0.53125,1 -1.65625,1.51562 l -0.54687,-0.875 q 0.67187,-0.28125 1,-0.85937 0.32812,-0.59375 0.375,-1.625 z"
       fill-rule="nonzero"
       id="path108" /><path
       fill="#000000"
       fill-opacity="0"
       d="m 284.40158,553.81104 h 141.73227 v 50.07874 H 284.40158 Z"
       fill-rule="evenodd"
       id="path109" /><path
       fill="#000000"
       d="m 309.18283,576.33417 q -0.78125,1.21875 -1.1875,2.6875 l -2.4375,-1.51563 h -2.73438 v 6.1875 l 1.54688,2.25 q -1.29688,0.20313 -2.64063,1.1875 -1.39062,-1.01562 -2.6875,-1.1875 0.73438,-0.98437 1.60938,-2.25 v -6.1875 h -2.8125 l -2.4375,1.59375 q -0.32813,-1.48437 -1.1875,-2.60937 0.85937,-1.1875 1.23437,-2.60938 l 2.23438,1.5 h 2.96875 v -3.29687 l -1.60938,-2.17188 q 1.34375,-0.23437 2.64063,-1.34375 1.51562,1.0625 2.6875,1.28125 l -1.54688,2.34375 v 3.1875 h 2.70313 l 2.35937,-1.51562 q 0.25,1.34375 1.29688,2.46875 z m -6.71875,-5.54688 v -0.95312 h -1.39063 v 0.95312 z m 5.34375,6.35938 v -1.35938 h -0.95313 v 1.35938 z m -4.25,-0.5 v -0.40625 h -1.625 v -1.96875 h -0.40625 v 1.96875 h -1.60938 v 0.40625 h 1.60938 v 4.85937 h 0.40625 v -4.85937 z m -7.09375,0.5 v -1.35938 h -0.95313 v 1.35938 z m 6,8.8125 v -0.95313 h -1.39063 v 0.95313 z"
       fill-rule="nonzero"
       id="path110" /><path
       fill="#000000"
       d="m 318.16913,581.3029 2.26562,-0.1875 q 0.15625,1.35938 0.73438,2.23438 0.59375,0.85937 1.82812,1.40625 1.23438,0.53125 2.78125,0.53125 1.375,0 2.42188,-0.40625 1.0625,-0.40625 1.5625,-1.10938 0.51562,-0.71875 0.51562,-1.5625 0,-0.85937 -0.5,-1.48437 -0.48437,-0.64063 -1.625,-1.07813 -0.71875,-0.28125 -3.21875,-0.875 -2.5,-0.60937 -3.5,-1.14062 -1.29687,-0.67188 -1.9375,-1.67188 -0.64062,-1.01562 -0.64062,-2.26562 0,-1.375 0.78125,-2.5625 0.78125,-1.20313 2.26562,-1.8125 1.5,-0.625 3.34375,-0.625 2.01563,0 3.54688,0.65625 1.54687,0.64062 2.375,1.90625 0.82812,1.25 0.89062,2.85937 l -2.3125,0.17188 q -0.17187,-1.71875 -1.25,-2.59375 -1.0625,-0.89063 -3.15625,-0.89063 -2.17187,0 -3.17187,0.79688 -1,0.79687 -1,1.92187 0,0.98438 0.70312,1.60938 0.70313,0.64062 3.625,1.29687 2.92188,0.65625 4.01563,1.15625 1.57812,0.73438 2.32812,1.85938 0.76563,1.10937 0.76563,2.5625 0,1.45312 -0.84375,2.73437 -0.82813,1.28125 -2.375,2 -1.54688,0.70313 -3.48438,0.70313 -2.46875,0 -4.14062,-0.71875 -1.65625,-0.71875 -2.60938,-2.15625 -0.9375,-1.4375 -0.98437,-3.26563 z m 26.40929,1.59375 2.29687,0.29688 q -0.53125,2.01562 -2.01562,3.125 -1.46875,1.10937 -3.75,1.10937 -2.89063,0 -4.57813,-1.76562 -1.6875,-1.78125 -1.6875,-4.98438 0,-3.3125 1.70313,-5.14062 1.71875,-1.84375 4.4375,-1.84375 2.64062,0 4.29687,1.79687 1.67188,1.79688 1.67188,5.04688 0,0.20312 -0.0156,0.59375 h -9.78125 q 0.10938,2.17187 1.20313,3.32812 1.10937,1.14063 2.76562,1.14063 1.21875,0 2.07813,-0.64063 0.875,-0.64062 1.375,-2.0625 z m -7.3125,-3.59375 h 7.34375 q -0.15625,-1.65625 -0.84375,-2.48437 -1.0625,-1.28125 -2.75,-1.28125 -1.54688,0 -2.59375,1.03125 -1.03125,1.01562 -1.15625,2.73437 z m 16.05503,7.82813 -4.98436,-13.14063 h 2.34374 l 2.8125,7.875 q 0.46875,1.26563 0.84375,2.64063 0.29687,-1.03125 0.82812,-2.5 l 2.92188,-8.01563 h 2.29687 l -4.98437,13.14063 z m 18.00782,-4.23438 2.29687,0.29688 q -0.53125,2.01562 -2.01562,3.125 -1.46875,1.10937 -3.75,1.10937 -2.89063,0 -4.57813,-1.76562 -1.6875,-1.78125 -1.6875,-4.98438 0,-3.3125 1.70313,-5.14062 1.71875,-1.84375 4.4375,-1.84375 2.64062,0 4.29687,1.79687 1.67188,1.79688 1.67188,5.04688 0,0.20312 -0.0156,0.59375 h -9.78125 q 0.10938,2.17187 1.20313,3.32812 1.10937,1.14063 2.76562,1.14063 1.21875,0 2.07813,-0.64063 0.875,-0.64062 1.375,-2.0625 z m -7.3125,-3.59375 h 7.34375 q -0.15625,-1.65625 -0.84375,-2.48437 -1.0625,-1.28125 -2.75,-1.28125 -1.54688,0 -2.59375,1.03125 -1.03125,1.01562 -1.15625,2.73437 z m 12.41443,7.82813 V 573.9904 h 2 v 1.875 q 1.45312,-2.17187 4.1875,-2.17187 1.1875,0 2.17187,0.4375 1,0.42187 1.48438,1.125 0.5,0.6875 0.70312,1.64062 0.125,0.60938 0.125,2.15625 v 8.07813 h -2.23437 v -7.98438 q 0,-1.35937 -0.26563,-2.03125 -0.25,-0.6875 -0.90625,-1.07812 -0.65625,-0.40625 -1.54687,-0.40625 -1.42188,0 -2.46875,0.90625 -1.03125,0.89062 -1.03125,3.42187 v 7.17188 z m 18.94567,-1.98438 0.3125,1.95313 q -0.9375,0.20312 -1.67187,0.20312 -1.21875,0 -1.89063,-0.375 -0.65625,-0.39062 -0.9375,-1.01562 -0.26562,-0.625 -0.26562,-2.625 v -7.5625 h -1.64063 v -1.73438 h 1.64063 v -3.25 l 2.21875,-1.32812 v 4.57812 h 2.23437 v 1.73438 H 393.142 v 7.6875 q 0,0.95312 0.10937,1.23437 0.125,0.26563 0.39063,0.42188 0.26562,0.15625 0.75,0.15625 0.375,0 0.98437,-0.0781 z m 2.17762,1.98438 v -18.125 h 2.21875 v 6.5 q 1.5625,-1.8125 3.9375,-1.8125 1.45312,0 2.53125,0.57812 1.07812,0.57813 1.54687,1.59375 0.46875,1.01563 0.46875,2.9375 v 8.32813 h -2.23437 v -8.32813 q 0,-1.67187 -0.73438,-2.42187 -0.71875,-0.76563 -2.03125,-0.76563 -1,0 -1.875,0.51563 -0.85937,0.51562 -1.23437,1.39062 -0.375,0.875 -0.375,2.42188 v 7.1875 z"
       fill-rule="nonzero"
       id="path111" /><path
       fill="#000000"
       fill-opacity="0.0"
       d="m398.22308 25.532808l-146.61417 -25.543306"
       fill-rule="evenodd"
       id="path112" /><path
       stroke="#000000"
       stroke-width="1.28474"
       stroke-linejoin="round"
       stroke-linecap="butt"
       d="M 489.43298,26.110821 251.61579,0.11859583"
       fill-rule="evenodd"
       id="path113"
       style="stroke-width:1;stroke-dasharray:none" /><path
       fill="#000000"
       fill-opacity="0.0"
       d="m254.99213 -0.010498688l-179.1496 25.543306"
       fill-rule="evenodd"
       id="path114" /><path
       stroke="#000000"
       stroke-width="0.678611"
       stroke-linejoin="round"
       stroke-linecap="butt"
       d="M 254.99067,-0.07748199 170.5963,24.892684"
       fill-rule="evenodd"
       id="path115" /><text
       xml:space="preserve"
       style="font-style:normal;font-variant:normal;font-weight:bold;font-stretch:normal;font-size:18.6667px;font-family:Arial;-inkscape-font-specification:'Arial, Bold';font-variant-ligatures:normal;font-variant-caps:normal;font-variant-numeric:normal;font-variant-east-asian:normal;text-align:start;writing-mode:lr-tb;direction:ltr;text-anchor:start;fill:#000000"
       x="122.26431"
       y="42.769554"
       id="text1"><tspan
         sodipodi:role="line"
         id="tspan1"
         x="122.26431"
         y="42.769554">Willelme III</tspan></text><text
       xml:space="preserve"
       style="font-style:normal;font-variant:normal;font-weight:normal;font-stretch:normal;font-size:16px;font-family:Arial;-inkscape-font-specification:'Arial, Normal';font-variant-ligatures:normal;font-variant-caps:normal;font-variant-numeric:normal;font-variant-east-asian:normal;text-align:start;writing-mode:lr-tb;direction:ltr;text-anchor:start;fill:#000000"
       x="111.01576"
       y="166.17009"
       id="text2"><tspan
         sodipodi:role="line"
         id="tspan2"></tspan></text><text
       xml:space="preserve"
       style="font-style:normal;font-variant:normal;font-weight:normal;font-stretch:normal;font-size:16px;font-family:Arial;-inkscape-font-specification:'Arial, Normal';font-variant-ligatures:normal;font-variant-caps:normal;font-variant-numeric:normal;font-variant-east-asian:normal;text-align:start;writing-mode:lr-tb;direction:ltr;text-anchor:start;fill:#000000"
       x="131.07689"
       y="60"
       id="text3"><tspan
         sodipodi:role="line"
         id="tspan3"
         x="131.07689"
         y="60">10??-1097</tspan></text><text
       xml:space="preserve"
       style="font-style:normal;font-variant:normal;font-weight:normal;font-stretch:normal;font-size:16px;font-family:Arial;-inkscape-font-specification:'Arial, Normal';font-variant-ligatures:normal;font-variant-caps:normal;font-variant-numeric:normal;font-variant-east-asian:normal;text-align:start;writing-mode:lr-tb;direction:ltr;text-anchor:start;fill:#800080"
       x="131.07689"
       y="79"
       id="text4"><tspan
         sodipodi:role="line"
         x="131.07689"
         y="79"
         id="tspan5">1085-1097</tspan></text><text
       xml:space="preserve"
       style="font-style:normal;font-variant:normal;font-weight:normal;font-stretch:normal;font-size:16px;font-family:Arial;-inkscape-font-specification:'Arial, Normal';font-variant-ligatures:normal;font-variant-caps:normal;font-variant-numeric:normal;font-variant-east-asian:normal;text-align:start;writing-mode:lr-tb;direction:ltr;text-anchor:start;fill:#800080"
       x="123.42011"
       y="95"
       id="text6"><tspan
         sodipodi:role="line"
         id="tspan6"
         x="123.42011"
         y="95"
         style="font-style:normal;font-variant:normal;font-weight:normal;font-stretch:normal;font-size:13.3333px;font-family:Arial;-inkscape-font-specification:'Arial, Normal';font-variant-ligatures:normal;font-variant-caps:normal;font-variant-numeric:normal;font-variant-east-asian:normal;fill:#800080">Lyon and Forez</tspan></text><path
       fill="#cfe2f3"
       d="m 113.5,127.5 h 113.38582 v 75.59055 H 113.5 Z"
       fill-rule="evenodd"
       id="path3-2"
       style="fill:#cfe2f3;fill-opacity:1" /><path
       stroke="#000000"
       stroke-width="1"
       stroke-linejoin="round"
       stroke-linecap="butt"
       d="m 113.5,127.5 h 113.38582 v 75.59055 H 113.5 Z"
       fill-rule="evenodd"
       id="path4-32" /><text
       xml:space="preserve"
       style="font-style:normal;font-variant:normal;font-weight:bold;font-stretch:normal;font-size:18.6667px;font-family:Arial;-inkscape-font-specification:'Arial, Bold';font-variant-ligatures:normal;font-variant-caps:normal;font-variant-numeric:normal;font-variant-east-asian:normal;text-align:start;writing-mode:lr-tb;direction:ltr;text-anchor:start;fill:#000000"
       x="124.99702"
       y="144.73676"
       id="text1-1"><tspan
         sodipodi:role="line"
         id="tspan1-10"
         x="124.99702"
         y="144.73676">Guillaume</tspan></text><text
       xml:space="preserve"
       style="font-style:normal;font-variant:normal;font-weight:normal;font-stretch:normal;font-size:16px;font-family:Arial;-inkscape-font-specification:'Arial, Normal';font-variant-ligatures:normal;font-variant-caps:normal;font-variant-numeric:normal;font-variant-east-asian:normal;text-align:start;writing-mode:lr-tb;direction:ltr;text-anchor:start;fill:#800080"
       x="123.7705"
       y="196.96719"
       id="text6-09"><tspan
         sodipodi:role="line"
         id="tspan6-42"
         x="123.7705"
         y="196.96719"
         style="font-style:normal;font-variant:normal;font-weight:normal;font-stretch:normal;font-size:13.3333px;font-family:Arial;-inkscape-font-specification:'Arial, Normal';font-variant-ligatures:normal;font-variant-caps:normal;font-variant-numeric:normal;font-variant-east-asian:normal;fill:#800080">Lyon and Forez</tspan></text><path
       fill="#000000"
       fill-opacity="0"
       d="m 267.14961,129.66666 h 113.38582 v 50.07875 H 267.14961 Z"
       fill-rule="evenodd"
       id="path100-0" /><path
       fill="#cfe2f3"
       d="m 245.5,127.5 h 113.38582 v 75.59055 H 245.5 Z"
       fill-rule="evenodd"
       id="path3-2-8" /><path
       stroke="#000000"
       stroke-width="1"
       stroke-linejoin="round"
       stroke-linecap="butt"
       d="m 245.5,127.5 h 113.38582 v 75.59055 H 245.5 Z"
       fill-rule="evenodd"
       id="path4-32-1" /><text
       xml:space="preserve"
       style="font-style:normal;font-variant:normal;font-weight:bold;font-stretch:normal;font-size:18.6667px;font-family:Arial;-inkscape-font-specification:'Arial, Bold';font-variant-ligatures:normal;font-variant-caps:normal;font-variant-numeric:normal;font-variant-east-asian:normal;text-align:start;writing-mode:lr-tb;direction:ltr;text-anchor:start;fill:#000000"
       x="260.38766"
       y="144.73676"
       id="text1-1-4"><tspan
         sodipodi:role="line"
         id="tspan1-10-9"
         x="260.38766"
         y="144.73676">Eustache</tspan></text><text
       xml:space="preserve"
       style="font-style:normal;font-variant:normal;font-weight:normal;font-stretch:normal;font-size:16px;font-family:Arial;-inkscape-font-specification:'Arial, Normal';font-variant-ligatures:normal;font-variant-caps:normal;font-variant-numeric:normal;font-variant-east-asian:normal;text-align:start;writing-mode:lr-tb;direction:ltr;text-anchor:start;fill:#800080"
       x="255.77051"
       y="196.96719"
       id="text6-09-5"><tspan
         sodipodi:role="line"
         id="tspan6-42-9"
         x="255.77051"
         y="196.96719"
         style="font-style:normal;font-variant:normal;font-weight:normal;font-stretch:normal;font-size:13.3333px;font-family:Arial;-inkscape-font-specification:'Arial, Normal';font-variant-ligatures:normal;font-variant-caps:normal;font-variant-numeric:normal;font-variant-east-asian:normal;fill:#800080">Lyon and Forez</tspan></text><path
       fill="#cfe2f3"
       d="m 245.5,26 h 113.38582 v 75.59055 H 245.5 Z"
       fill-rule="evenodd"
       id="path3-8" /><path
       stroke="#000000"
       stroke-width="1"
       stroke-linejoin="round"
       stroke-linecap="butt"
       d="m 245.5,26 h 113.38582 v 75.59055 H 245.5 Z"
       fill-rule="evenodd"
       id="path4-0" /><text
       xml:space="preserve"
       style="font-style:normal;font-variant:normal;font-weight:bold;font-stretch:normal;font-size:16px;font-family:Arial;-inkscape-font-specification:'Arial, Bold';font-variant-ligatures:normal;font-variant-caps:normal;font-variant-numeric:normal;font-variant-east-asian:normal;text-align:start;writing-mode:lr-tb;direction:ltr;text-anchor:start;fill:#000000"
       x="250.50443"
       y="43.236748"
       id="text1-4"><tspan
         sodipodi:role="line"
         id="tspan1-0"
         x="250.50443"
         y="43.236748">Vandelmonde</tspan></text><path
       fill="#cfe2f3"
       d="m 436.5,27 h 113.38582 v 75.59055 H 436.5 Z"
       fill-rule="evenodd"
       id="path3-3" /><path
       stroke="#000000"
       stroke-width="1"
       stroke-linejoin="round"
       stroke-linecap="butt"
       d="m 436.5,27 h 113.38582 v 75.59055 H 436.5 Z"
       fill-rule="evenodd"
       id="path4-3" /><text
       xml:space="preserve"
       style="font-style:normal;font-variant:normal;font-weight:bold;font-stretch:normal;font-size:18.6667px;font-family:Arial;-inkscape-font-specification:'Arial, Bold';font-variant-ligatures:normal;font-variant-caps:normal;font-variant-numeric:normal;font-variant-east-asian:normal;text-align:start;writing-mode:lr-tb;direction:ltr;text-anchor:start;fill:#000000"
       x="479.44238"
       y="44.23674"
       id="text1-3"><tspan
         sodipodi:role="line"
         id="tspan1-8"
         x="479.44238"
         y="44.23674">Ide</tspan></text><text
       xml:space="preserve"
       style="font-style:normal;font-variant:normal;font-weight:normal;font-stretch:normal;font-size:16px;font-family:Arial;-inkscape-font-specification:'Arial, Normal';font-variant-ligatures:normal;font-variant-caps:normal;font-variant-numeric:normal;font-variant-east-asian:normal;text-align:start;writing-mode:lr-tb;direction:ltr;text-anchor:start;fill:#800080"
       x="455.02103"
       y="80.467194"
       id="text4-9"><tspan
         sodipodi:role="line"
         x="455.02103"
         y="80.467194"
         id="tspan5-6">10??-1107</tspan></text><text
       xml:space="preserve"
       style="font-style:normal;font-variant:normal;font-weight:normal;font-stretch:normal;font-size:16px;font-family:Arial;-inkscape-font-specification:'Arial, Normal';font-variant-ligatures:normal;font-variant-caps:normal;font-variant-numeric:normal;font-variant-east-asian:normal;text-align:start;writing-mode:lr-tb;direction:ltr;text-anchor:start;fill:#800080"
       x="446.77051"
       y="96.467194"
       id="text6-0"><tspan
         sodipodi:role="line"
         id="tspan6-4"
         x="446.77051"
         y="96.467194"
         style="font-style:normal;font-variant:normal;font-weight:normal;font-stretch:normal;font-size:13.3333px;font-family:Arial;-inkscape-font-specification:'Arial, Normal';font-variant-ligatures:normal;font-variant-caps:normal;font-variant-numeric:normal;font-variant-east-asian:normal;fill:#800080">Lyon and Forez</tspan></text><path
       fill="#cfe2f3"
       d="m 567.5,27 h 113.38582 v 75.59055 H 567.5 Z"
       fill-rule="evenodd"
       id="path3-6"
       style="fill:#ff6600" /><path
       stroke="#000000"
       stroke-width="1"
       stroke-linejoin="round"
       stroke-linecap="butt"
       d="m 567.5,27 h 113.38582 v 75.59055 H 567.5 Z"
       fill-rule="evenodd"
       id="path4-9" /><text
       xml:space="preserve"
       style="font-style:normal;font-variant:normal;font-weight:bold;font-stretch:normal;font-size:18.6667px;font-family:Arial;-inkscape-font-specification:'Arial, Bold';font-variant-ligatures:normal;font-variant-caps:normal;font-variant-numeric:normal;font-variant-east-asian:normal;text-align:start;writing-mode:lr-tb;direction:ltr;text-anchor:start;fill:#000000"
       x="569.64606"
       y="44.236748"
       id="text1-0"><tspan
         sodipodi:role="line"
         id="tspan1-1"
         x="569.64606"
         y="44.236748"
         style="font-style:normal;font-variant:normal;font-weight:bold;font-stretch:normal;font-size:16px;font-family:Arial;-inkscape-font-specification:'Arial, Bold';font-variant-ligatures:normal;font-variant-caps:normal;font-variant-numeric:normal;font-variant-east-asian:normal">Guy-Raymond</tspan></text><path
       fill="#cfe2f3"
       d="m 433.5,438 h 113.38582 v 75.59055 H 433.5 Z"
       fill-rule="evenodd"
       id="path3-0"
       style="fill:#ffccaa" /><path
       stroke="#000000"
       stroke-width="1"
       stroke-linejoin="round"
       stroke-linecap="butt"
       d="m 434.53401,438 h 113.38582 v 75.59055 H 434.53401 Z"
       fill-rule="evenodd"
       id="path4-09" /><text
       xml:space="preserve"
       style="font-style:normal;font-variant:normal;font-weight:bold;font-stretch:normal;font-size:18.6667px;font-family:Arial;-inkscape-font-specification:'Arial, Bold';font-variant-ligatures:normal;font-variant-caps:normal;font-variant-numeric:normal;font-variant-east-asian:normal;text-align:start;writing-mode:lr-tb;direction:ltr;text-anchor:start;fill:#000000"
       x="442.03998"
       y="455.23676"
       id="text1-7"><tspan
         sodipodi:role="line"
         id="tspan1-17"
         x="442.03998"
         y="455.23676">Guigues IV</tspan></text><text
       xml:space="preserve"
       style="font-style:normal;font-variant:normal;font-weight:normal;font-stretch:normal;font-size:16px;font-family:Arial;-inkscape-font-specification:'Arial, Normal';font-variant-ligatures:normal;font-variant-caps:normal;font-variant-numeric:normal;font-variant-east-asian:normal;text-align:start;writing-mode:lr-tb;direction:ltr;text-anchor:start;fill:#000000"
       x="454.16052"
       y="472.46719"
       id="text3-4"><tspan
         sodipodi:role="line"
         id="tspan3-5"
         x="454.16052"
         y="472.46719">1196-1241</tspan></text><text
       xml:space="preserve"
       style="font-style:normal;font-variant:normal;font-weight:normal;font-stretch:normal;font-size:16px;font-family:Arial;-inkscape-font-specification:'Arial, Normal';font-variant-ligatures:normal;font-variant-caps:normal;font-variant-numeric:normal;font-variant-east-asian:normal;text-align:start;writing-mode:lr-tb;direction:ltr;text-anchor:start;fill:#800080"
       x="453.56677"
       y="491.46719"
       id="text4-1"><tspan
         sodipodi:role="line"
         x="453.56677"
         y="491.46719"
         id="tspan5-7">1202-1241</tspan></text><text
       xml:space="preserve"
       style="font-style:normal;font-variant:normal;font-weight:normal;font-stretch:normal;font-size:16px;font-family:Arial;-inkscape-font-specification:'Arial, Normal';font-variant-ligatures:normal;font-variant-caps:normal;font-variant-numeric:normal;font-variant-east-asian:normal;text-align:start;writing-mode:lr-tb;direction:ltr;text-anchor:start;fill:#800080"
       x="437.87744"
       y="507.46719"
       id="text6-8"><tspan
         sodipodi:role="line"
         id="tspan6-2"
         x="437.87744"
         y="507.46719"
         style="font-style:normal;font-variant:normal;font-weight:normal;font-stretch:normal;font-size:13.3333px;font-family:Arial;-inkscape-font-specification:'Arial, Normal';font-variant-ligatures:normal;font-variant-caps:normal;font-variant-numeric:normal;font-variant-east-asian:normal;fill:#800080">Nevers and Forez</tspan></text><path
       fill="#cfe2f3"
       d="m 434,334.5 h 113.38582 v 75.59055 H 434 Z"
       fill-rule="evenodd"
       id="path3-0-4"
       style="fill:#ffccaa" /><path
       stroke="#000000"
       stroke-width="1"
       stroke-linejoin="round"
       stroke-linecap="butt"
       d="m 435.03401,334.5 h 113.38582 v 75.59055 H 435.03401 Z"
       fill-rule="evenodd"
       id="path4-09-1" /><text
       xml:space="preserve"
       style="font-style:normal;font-variant:normal;font-weight:bold;font-stretch:normal;font-size:18.6667px;font-family:Arial;-inkscape-font-specification:'Arial, Bold';font-variant-ligatures:normal;font-variant-caps:normal;font-variant-numeric:normal;font-variant-east-asian:normal;text-align:start;writing-mode:lr-tb;direction:ltr;text-anchor:start;fill:#000000"
       x="444.17606"
       y="351.73676"
       id="text1-7-7"><tspan
         sodipodi:role="line"
         id="tspan1-17-1"
         x="444.17606"
         y="351.73676">Guigues III</tspan></text><text
       xml:space="preserve"
       style="font-style:normal;font-variant:normal;font-weight:normal;font-stretch:normal;font-size:16px;font-family:Arial;-inkscape-font-specification:'Arial, Normal';font-variant-ligatures:normal;font-variant-caps:normal;font-variant-numeric:normal;font-variant-east-asian:normal;text-align:start;writing-mode:lr-tb;direction:ltr;text-anchor:start;fill:#000000"
       x="453.61365"
       y="368.96719"
       id="text3-4-3"><tspan
         sodipodi:role="line"
         id="tspan3-5-4"
         x="453.61365"
         y="368.96719">1152-1202</tspan></text><text
       xml:space="preserve"
       style="font-style:normal;font-variant:normal;font-weight:normal;font-stretch:normal;font-size:16px;font-family:Arial;-inkscape-font-specification:'Arial, Normal';font-variant-ligatures:normal;font-variant-caps:normal;font-variant-numeric:normal;font-variant-east-asian:normal;text-align:start;writing-mode:lr-tb;direction:ltr;text-anchor:start;fill:#800080"
       x="453.61365"
       y="387.96719"
       id="text4-1-8"><tspan
         sodipodi:role="line"
         x="453.61365"
         y="387.96719"
         id="tspan5-7-6">1199-1202</tspan></text><text
       xml:space="preserve"
       style="font-style:normal;font-variant:normal;font-weight:normal;font-stretch:normal;font-size:16px;font-family:Arial;-inkscape-font-specification:'Arial, Normal';font-variant-ligatures:normal;font-variant-caps:normal;font-variant-numeric:normal;font-variant-east-asian:normal;text-align:start;writing-mode:lr-tb;direction:ltr;text-anchor:start;fill:#800080"
       x="445.56168"
       y="403.96719"
       id="text6-8-1"><tspan
         sodipodi:role="line"
         id="tspan6-2-5"
         x="445.56168"
         y="403.96719"
         style="font-style:normal;font-variant:normal;font-weight:normal;font-stretch:normal;font-size:13.3333px;font-family:Arial;-inkscape-font-specification:'Arial, Normal';font-variant-ligatures:normal;font-variant-caps:normal;font-variant-numeric:normal;font-variant-east-asian:normal;fill:#800080">Forez and Lyon</tspan></text><path
       fill="#cfe2f3"
       d="m 434,230 h 113.38582 v 75.59055 H 434 Z"
       fill-rule="evenodd"
       id="path3-0-5"
       style="fill:#ffccaa" /><path
       stroke="#000000"
       stroke-width="1"
       stroke-linejoin="round"
       stroke-linecap="butt"
       d="m 435.03401,230 h 113.38582 v 75.59055 H 435.03401 Z"
       fill-rule="evenodd"
       id="path4-09-3" /><text
       xml:space="preserve"
       style="font-style:normal;font-variant:normal;font-weight:bold;font-stretch:normal;font-size:18.6667px;font-family:Arial;-inkscape-font-specification:'Arial, Bold';font-variant-ligatures:normal;font-variant-caps:normal;font-variant-numeric:normal;font-variant-east-asian:normal;text-align:start;writing-mode:lr-tb;direction:ltr;text-anchor:start;fill:#000000"
       x="446.76917"
       y="247.23676"
       id="text1-7-9"><tspan
         sodipodi:role="line"
         id="tspan1-17-9"
         x="446.76917"
         y="247.23676">Guigues II</tspan></text><text
       xml:space="preserve"
       style="font-style:normal;font-variant:normal;font-weight:normal;font-stretch:normal;font-size:16px;font-family:Arial;-inkscape-font-specification:'Arial, Normal';font-variant-ligatures:normal;font-variant-caps:normal;font-variant-numeric:normal;font-variant-east-asian:normal;text-align:start;writing-mode:lr-tb;direction:ltr;text-anchor:start;fill:#000000"
       x="454.66052"
       y="264.46719"
       id="text3-4-4"><tspan
         sodipodi:role="line"
         id="tspan3-5-9"
         x="454.66052"
         y="264.46719">1196-1241</tspan></text><text
       xml:space="preserve"
       style="font-style:normal;font-variant:normal;font-weight:normal;font-stretch:normal;font-size:16px;font-family:Arial;-inkscape-font-specification:'Arial, Normal';font-variant-ligatures:normal;font-variant-caps:normal;font-variant-numeric:normal;font-variant-east-asian:normal;text-align:start;writing-mode:lr-tb;direction:ltr;text-anchor:start;fill:#800080"
       x="454.13708"
       y="283.46719"
       id="text4-1-1"><tspan
         sodipodi:role="line"
         x="454.13708"
         y="283.46719"
         id="tspan5-7-5">1137-1199</tspan></text><text
       xml:space="preserve"
       style="font-style:normal;font-variant:normal;font-weight:normal;font-stretch:normal;font-size:16px;font-family:Arial;-inkscape-font-specification:'Arial, Normal';font-variant-ligatures:normal;font-variant-caps:normal;font-variant-numeric:normal;font-variant-east-asian:normal;text-align:start;writing-mode:lr-tb;direction:ltr;text-anchor:start;fill:#800080"
       x="445.3045"
       y="299.46719"
       id="text6-8-9"><tspan
         sodipodi:role="line"
         id="tspan6-2-8"
         x="445.3045"
         y="299.46719"
         style="font-style:normal;font-variant:normal;font-weight:normal;font-stretch:normal;font-size:13.3333px;font-family:Arial;-inkscape-font-specification:'Arial, Normal';font-variant-ligatures:normal;font-variant-caps:normal;font-variant-numeric:normal;font-variant-east-asian:normal;fill:#800080">Lyon and Forez</tspan></text><path
       fill="#cfe2f3"
       d="m 434,129 h 113.38582 v 75.59055 H 434 Z"
       fill-rule="evenodd"
       id="path3-0-9"
       style="fill:#ffccaa" /><path
       stroke="#000000"
       stroke-width="1"
       stroke-linejoin="round"
       stroke-linecap="butt"
       d="m 435.03401,129 h 113.38582 v 75.59055 H 435.03401 Z"
       fill-rule="evenodd"
       id="path4-09-4" /><text
       xml:space="preserve"
       style="font-style:normal;font-variant:normal;font-weight:bold;font-stretch:normal;font-size:18.6667px;font-family:Arial;-inkscape-font-specification:'Arial, Bold';font-variant-ligatures:normal;font-variant-caps:normal;font-variant-numeric:normal;font-variant-east-asian:normal;text-align:start;writing-mode:lr-tb;direction:ltr;text-anchor:start;fill:#000000"
       x="449.36227"
       y="146.23676"
       id="text1-7-4"><tspan
         sodipodi:role="line"
         id="tspan1-17-7"
         x="449.36227"
         y="146.23676">Guigues I</tspan></text><text
       xml:space="preserve"
       style="font-style:normal;font-variant:normal;font-weight:normal;font-stretch:normal;font-size:16px;font-family:Arial;-inkscape-font-specification:'Arial, Normal';font-variant-ligatures:normal;font-variant-caps:normal;font-variant-numeric:normal;font-variant-east-asian:normal;text-align:start;writing-mode:lr-tb;direction:ltr;text-anchor:start;fill:#000000"
       x="454.66052"
       y="163.46719"
       id="text3-4-9"><tspan
         sodipodi:role="line"
         id="tspan3-5-5"
         x="454.66052"
         y="163.46719">1196-1241</tspan></text><text
       xml:space="preserve"
       style="font-style:normal;font-variant:normal;font-weight:normal;font-stretch:normal;font-size:16px;font-family:Arial;-inkscape-font-specification:'Arial, Normal';font-variant-ligatures:normal;font-variant-caps:normal;font-variant-numeric:normal;font-variant-east-asian:normal;text-align:start;writing-mode:lr-tb;direction:ltr;text-anchor:start;fill:#800080"
       x="454.1488"
       y="182.46719"
       id="text4-1-5"><tspan
         sodipodi:role="line"
         x="454.1488"
         y="182.46719"
         id="tspan5-7-61">1109-1137</tspan></text><text
       xml:space="preserve"
       style="font-style:normal;font-variant:normal;font-weight:normal;font-stretch:normal;font-size:16px;font-family:Arial;-inkscape-font-specification:'Arial, Normal';font-variant-ligatures:normal;font-variant-caps:normal;font-variant-numeric:normal;font-variant-east-asian:normal;text-align:start;writing-mode:lr-tb;direction:ltr;text-anchor:start;fill:#800080"
       x="445.3045"
       y="198.46719"
       id="text6-8-5"><tspan
         sodipodi:role="line"
         id="tspan6-2-9"
         x="445.3045"
         y="198.46719"
         style="font-style:normal;font-variant:normal;font-weight:normal;font-stretch:normal;font-size:13.3333px;font-family:Arial;-inkscape-font-specification:'Arial, Normal';font-variant-ligatures:normal;font-variant-caps:normal;font-variant-numeric:normal;font-variant-east-asian:normal;fill:#800080">Lyon and Forez</tspan></text><path
       fill="#cfe2f3"
       d="m 432.5,540 h 113.38582 v 75.59055 H 432.5 Z"
       fill-rule="evenodd"
       id="path3-0-3"
       style="fill:#ffccaa" /><path
       stroke="#000000"
       stroke-width="1"
       stroke-linejoin="round"
       stroke-linecap="butt"
       d="m 433.53401,540 h 113.38582 v 75.59055 H 433.53401 Z"
       fill-rule="evenodd"
       id="path4-09-8" /><text
       xml:space="preserve"
       style="font-style:normal;font-variant:normal;font-weight:bold;font-stretch:normal;font-size:18.6667px;font-family:Arial;-inkscape-font-specification:'Arial, Bold';font-variant-ligatures:normal;font-variant-caps:normal;font-variant-numeric:normal;font-variant-east-asian:normal;text-align:start;writing-mode:lr-tb;direction:ltr;text-anchor:start;fill:#000000"
       x="443.63306"
       y="557.23676"
       id="text1-7-70"><tspan
         sodipodi:role="line"
         id="tspan1-17-3"
         x="443.63306"
         y="557.23676">Guigues V</tspan></text><text
       xml:space="preserve"
       style="font-style:normal;font-variant:normal;font-weight:normal;font-stretch:normal;font-size:16px;font-family:Arial;-inkscape-font-specification:'Arial, Normal';font-variant-ligatures:normal;font-variant-caps:normal;font-variant-numeric:normal;font-variant-east-asian:normal;text-align:start;writing-mode:lr-tb;direction:ltr;text-anchor:start;fill:#000000"
       x="451.44958"
       y="574.46716"
       id="text3-4-6"><tspan
         sodipodi:role="line"
         id="tspan3-5-91"
         x="451.44958"
         y="574.46716">1220-1259</tspan></text><text
       xml:space="preserve"
       style="font-style:normal;font-variant:normal;font-weight:normal;font-stretch:normal;font-size:16px;font-family:Arial;-inkscape-font-specification:'Arial, Normal';font-variant-ligatures:normal;font-variant-caps:normal;font-variant-numeric:normal;font-variant-east-asian:normal;text-align:start;writing-mode:lr-tb;direction:ltr;text-anchor:start;fill:#800080"
       x="451.44958"
       y="593.46716"
       id="text4-1-4"><tspan
         sodipodi:role="line"
         x="451.44958"
         y="593.46716"
         id="tspan5-7-1">1241-1259</tspan></text><text
       xml:space="preserve"
       style="font-style:normal;font-variant:normal;font-weight:normal;font-stretch:normal;font-size:16px;font-family:Arial;-inkscape-font-specification:'Arial, Normal';font-variant-ligatures:normal;font-variant-caps:normal;font-variant-numeric:normal;font-variant-east-asian:normal;text-align:start;writing-mode:lr-tb;direction:ltr;text-anchor:start;fill:#800080"
       x="472.78229"
       y="609.46716"
       id="text6-8-4"><tspan
         sodipodi:role="line"
         id="tspan6-2-6"
         x="472.78229"
         y="609.46716"
         style="font-style:normal;font-variant:normal;font-weight:normal;font-stretch:normal;font-size:13.3333px;font-family:Arial;-inkscape-font-specification:'Arial, Normal';font-variant-ligatures:normal;font-variant-caps:normal;font-variant-numeric:normal;font-variant-east-asian:normal;fill:#800080">Forez</tspan></text><path
       fill="#cfe2f3"
       d="m 698,540 h 113.38582 v 75.59055 H 698 Z"
       fill-rule="evenodd"
       id="path3-0-1"
       style="fill:#ffccaa" /><path
       stroke="#000000"
       stroke-width="1"
       stroke-linejoin="round"
       stroke-linecap="butt"
       d="m 699.03401,540 h 113.38582 v 75.59055 H 699.03401 Z"
       fill-rule="evenodd"
       id="path4-09-6" /><text
       xml:space="preserve"
       style="font-style:normal;font-variant:normal;font-weight:bold;font-stretch:normal;font-size:18.6667px;font-family:Arial;-inkscape-font-specification:'Arial, Bold';font-variant-ligatures:normal;font-variant-caps:normal;font-variant-numeric:normal;font-variant-east-asian:normal;text-align:start;writing-mode:lr-tb;direction:ltr;text-anchor:start;fill:#000000"
       x="716.23792"
       y="557.23676"
       id="text1-7-0"><tspan
         sodipodi:role="line"
         id="tspan1-17-92"
         x="716.23792"
         y="557.23676">Renaud I</tspan></text><text
       xml:space="preserve"
       style="font-style:normal;font-variant:normal;font-weight:normal;font-stretch:normal;font-size:16px;font-family:Arial;-inkscape-font-specification:'Arial, Normal';font-variant-ligatures:normal;font-variant-caps:normal;font-variant-numeric:normal;font-variant-east-asian:normal;text-align:start;writing-mode:lr-tb;direction:ltr;text-anchor:start;fill:#000000"
       x="716.98083"
       y="574.46716"
       id="text3-4-96"><tspan
         sodipodi:role="line"
         id="tspan3-5-0"
         x="716.98083"
         y="574.46716">1223-1270</tspan></text><text
       xml:space="preserve"
       style="font-style:normal;font-variant:normal;font-weight:normal;font-stretch:normal;font-size:16px;font-family:Arial;-inkscape-font-specification:'Arial, Normal';font-variant-ligatures:normal;font-variant-caps:normal;font-variant-numeric:normal;font-variant-east-asian:normal;text-align:start;writing-mode:lr-tb;direction:ltr;text-anchor:start;fill:#800080"
       x="716.98083"
       y="593.46716"
       id="text4-1-2"><tspan
         sodipodi:role="line"
         x="716.98083"
         y="593.46716"
         id="tspan5-7-8">1259-1270</tspan></text><text
       xml:space="preserve"
       style="font-style:normal;font-variant:normal;font-weight:normal;font-stretch:normal;font-size:16px;font-family:Arial;-inkscape-font-specification:'Arial, Normal';font-variant-ligatures:normal;font-variant-caps:normal;font-variant-numeric:normal;font-variant-east-asian:normal;text-align:start;writing-mode:lr-tb;direction:ltr;text-anchor:start;fill:#800080"
       x="738.28229"
       y="609.46716"
       id="text6-8-44"><tspan
         sodipodi:role="line"
         id="tspan6-2-80"
         x="738.28229"
         y="609.46716"
         style="font-style:normal;font-variant:normal;font-weight:normal;font-stretch:normal;font-size:13.3333px;font-family:Arial;-inkscape-font-specification:'Arial, Normal';font-variant-ligatures:normal;font-variant-caps:normal;font-variant-numeric:normal;font-variant-east-asian:normal;fill:#800080">Forez</tspan></text><path
       fill="#cfe2f3"
       d="m 33.29481,608.5 h 113.38582 v 75.59055 H 33.29481 Z"
       fill-rule="evenodd"
       id="path3-0-43"
       style="fill:#ffccaa" /><path
       stroke="#000000"
       stroke-width="1"
       stroke-linejoin="round"
       stroke-linecap="butt"
       d="m 33.29481,608.5 h 113.38582 v 75.59055 H 33.29481 Z"
       fill-rule="evenodd"
       id="path4-09-82" /><text
       xml:space="preserve"
       style="font-style:normal;font-variant:normal;font-weight:bold;font-stretch:normal;font-size:18.6667px;font-family:Arial;-inkscape-font-specification:'Arial, Bold';font-variant-ligatures:normal;font-variant-caps:normal;font-variant-numeric:normal;font-variant-east-asian:normal;text-align:start;writing-mode:lr-tb;direction:ltr;text-anchor:start;fill:#000000"
       x="35.74218"
       y="655.31415"
       id="text1-7-2"><tspan
         sodipodi:role="line"
         x="35.74218"
         y="655.31415"
         id="tspan7">Ablon-Forez</tspan></text><text
       xml:space="preserve"
       style="font-style:normal;font-variant:normal;font-weight:bold;font-stretch:normal;font-size:16px;font-family:Arial;-inkscape-font-specification:'Arial, Bold';font-variant-ligatures:normal;font-variant-caps:normal;font-variant-numeric:normal;font-variant-east-asian:normal;text-align:start;writing-mode:lr-tb;direction:ltr;text-anchor:start;fill:#1a1a1a"
       x="54.944748"
       y="636.62451"
       id="text8"><tspan
         sodipodi:role="line"
         id="tspan8"
         x="54.944748"
         y="636.62451">House of</tspan></text><path
       fill="#cfe2f3"
       d="m 33.5,518 h 113.38582 v 75.59055 H 33.5 Z"
       fill-rule="evenodd"
       id="path3-0-43-4"
       style="fill:#ff6600;fill-opacity:1" /><path
       stroke="#000000"
       stroke-width="1"
       stroke-linejoin="round"
       stroke-linecap="butt"
       d="m 33.5,518 h 113.38582 v 75.59055 H 33.5 Z"
       fill-rule="evenodd"
       id="path4-09-82-9" /><text
       xml:space="preserve"
       style="font-style:normal;font-variant:normal;font-weight:bold;font-stretch:normal;font-size:18.6667px;font-family:Arial;-inkscape-font-specification:'Arial, Bold';font-variant-ligatures:normal;font-variant-caps:normal;font-variant-numeric:normal;font-variant-east-asian:normal;text-align:start;writing-mode:lr-tb;direction:ltr;text-anchor:start;fill:#000000"
       x="64.384918"
       y="564.81415"
       id="text1-7-2-8"><tspan
         sodipodi:role="line"
         x="64.384918"
         y="564.81415"
         id="tspan7-1">Ablon</tspan></text><text
       xml:space="preserve"
       style="font-style:normal;font-variant:normal;font-weight:bold;font-stretch:normal;font-size:16px;font-family:Arial;-inkscape-font-specification:'Arial, Bold';font-variant-ligatures:normal;font-variant-caps:normal;font-variant-numeric:normal;font-variant-east-asian:normal;text-align:start;writing-mode:lr-tb;direction:ltr;text-anchor:start;fill:#1a1a1a"
       x="55.149933"
       y="546.12451"
       id="text8-0"><tspan
         sodipodi:role="line"
         id="tspan8-3"
         x="55.149933"
         y="546.12451">House of</tspan></text><path
       fill="#cfe2f3"
       d="m 34,425 h 113.38582 v 75.59055 H 34 Z"
       fill-rule="evenodd"
       id="path3-0-43-41"
       style="fill:#cfe2f3;fill-opacity:1" /><path
       stroke="#000000"
       stroke-width="1"
       stroke-linejoin="round"
       stroke-linecap="butt"
       d="m 34,425 h 113.38582 v 75.59055 H 34 Z"
       fill-rule="evenodd"
       id="path4-09-82-96" /><text
       xml:space="preserve"
       style="font-style:normal;font-variant:normal;font-weight:bold;font-stretch:normal;font-size:18.6667px;font-family:Arial;-inkscape-font-specification:'Arial, Bold';font-variant-ligatures:normal;font-variant-caps:normal;font-variant-numeric:normal;font-variant-east-asian:normal;text-align:start;writing-mode:lr-tb;direction:ltr;text-anchor:start;fill:#000000"
       x="65.304184"
       y="471.81415"
       id="text1-7-2-7"><tspan
         sodipodi:role="line"
         x="65.304184"
         y="471.81415"
         id="tspan7-0">Forez</tspan></text><text
       xml:space="preserve"
       style="font-style:normal;font-variant:normal;font-weight:bold;font-stretch:normal;font-size:16px;font-family:Arial;-inkscape-font-specification:'Arial, Bold';font-variant-ligatures:normal;font-variant-caps:normal;font-variant-numeric:normal;font-variant-east-asian:normal;text-align:start;writing-mode:lr-tb;direction:ltr;text-anchor:start;fill:#1a1a1a"
       x="55.649933"
       y="453.12451"
       id="text8-9"><tspan
         sodipodi:role="line"
         id="tspan8-7"
         x="55.649933"
         y="453.12451">House of</tspan></text><image
       preserveAspectRatio="none"
       inkscape:svg-dpi="96"
       width="65.388817"
       height="75"
       xlink:href="Albon-Forez.svg"
       id="image1"
       x="155.41631"
       y="608" /><image
       preserveAspectRatio="none"
       inkscape:svg-dpi="96"
       width="64.600838"
       height="75"
       xlink:href="Albon.svg"
       id="image1-5"
       x="155.41631"
       y="517.5" /><image
       preserveAspectRatio="none"
       inkscape:svg-dpi="96"
       width="68.181816"
       height="75"
       xlink:href="Forez.svg"
       id="image1-58"
       x="155.41631"
       y="425" /></g></svg>
