<?xml version="1.0" encoding="UTF-8" standalone="no"?><svg height="660" viewBox="-300 -300 600 660" width="600" xmlns="http://www.w3.org/2000/svg" xmlns:xlink="http://www.w3.org/1999/xlink"><radialGradient id="a" cx="-80" cy="-80" gradientTransform="matrix(1 0 0 .99983257 0 -.049961)" gradientUnits="userSpaceOnUse" r="405"><stop offset="0" stop-color="#fff" stop-opacity=".31"/><stop offset=".19" stop-color="#fff" stop-opacity=".25"/><stop offset=".6" stop-color="#6b6b6b" stop-opacity=".125"/><stop offset="1" stop-opacity=".125"/></radialGradient><path d="m-298.5-298.50003h597v258.5433c0 286.24794-298.5 398.45673-298.5 398.45673s-298.5-112.20879-298.5-398.45673z" fill="#fcef3c"/><g stroke-linecap="round" stroke-linejoin="round" stroke-width="3"><path d="m-185.69138-41.844323c-6.6717.06088-12.81711 6.551669-14.24135 10.418694 7.20639-2.86136 12.14008-1.52962 16.32107 2.849967l10.68883-7.51622s-5.69306-4.973256-11.42702-5.688372c-.44812-.05588-.89675-.06813-1.34153-.06398zm-20.06444 30.876427c-3.62957.01951-9.33914.627686-13.982 3.710004-7.27772 4.8315572-9.31054 15.8062171-8.60071 18.007455 7.16801-7.4456491 12.58815-9.6513161 25.87429-6.861809l.30592-14.674129s-1.41976-.193234-3.5975-.181474zm3.35939 26.792015s-11.66242 3.725383-14.48847 12.976482c-3.01438 9.867572 3.27577 17.641134 6.1752 19.170518 1.28621-6.904092 2.80768-16.797285 16.36162-19.522705zm17.05084 18.831986c-2.07634 4.023037-5.87094 10.057084-3.54574 17.279193 2.83244 8.797583 13.883 10.894072 16.99979 11.108283-5.38059-9.179275-3.66828-15.582866.67282-24.462998zm264.738093 154.321495c-.98739-.0207-1.977003.042-2.997278.2303-7.428711 1.37124-12.186751 10.13789-12.705327 13.6926 7.182318-4.61146 12.004282-4.95853 19.676041 2.96433 2.447805-2.87805 6.095661-6.83508 9.764472-10.83587-.967489-1.21007-6.826199-5.90585-13.737908-6.05136zm-16.067186 21.17837c-2.191981-.10687-4.69294.32003-7.215599 1.68153-9.404131 5.0755-8.394626 17.15468-7.915032 18.6656 8.342915-9.86586 13.897197-9.78848 21.019889-1.94686l1.427003-15.56181c-.831332-1.02996-3.66295-2.66043-7.316261-2.83846zm9.83909 24.02376s-9.435009 1.14445-12.185178 12.42363c-2.747182 11.26691 4.734286 16.38897 6.706832 17.44395.298661-8.66105 4.603095-15.87449 14.923173-18.15463zm21.073212 13.01096c-2.264611 1.63598-6.9352 4.06283-6.722964 12.49915.228292 9.0736 8.098048 13.44135 11.529201 13.81013-3.167554-8.49408-.08603-14.78827 5.472194-18.63511zm-241.086629-128.77795c-6.99188.0276-11.96927 5.23225-12.54971 6.24878 12.84446.84056 13.4539 5.89595 16.90522 14.89077 4.89725-3.55858 9.21974-6.60878 12.05018-8.24528.24817-2.0758-2.84792-8.20084-10.12208-11.48571-2.22445-1.0045-4.32588-1.41629-6.28361-1.40856zm-15.6584 20.70023c-1.42728-.0269-2.88144.1113-4.3472.50177-10.72581 2.85735-10.56947 11.02523-10.72239 13.74218 11.87582-5.77394 16.23993.00094 23.11795 5.70593l5.77649-14.93416c-2.12011-1.47992-7.63996-4.89738-13.82485-5.01572zm14.82072 29.77909s-9.39813-3.86567-16.26747.0508c-7.40588 4.22237-6.83545 14.15775-5.4303 17.57071 6.29475-9.2121 14.52803-7.44047 20.6771-3.11138zm26.35704 19.11118c1.9336 12.07445-2.85667 14.00651-11.19983 14.52385 2.83128 2.59794 12.31329 6.92364 18.59153 3.60874 6.89815-3.64218 8.65481-14.45202 7.96916-14.72673zm-64.4657-440.5231c-9.87779-.0594-15.41785 7.50529-16.89315 10.26081 17.61054-2.21879 15.9577 2.8992 18.92627 13.41518l15.38228-5.99478c-1.24178-5.51901-3.43623-14.48252-11.48491-16.80036-2.1297-.61331-4.10127-.86985-5.93049-.88085zm36.99394 1.35233c-3.31679-.14841-6.59128.72142-8.9728 2.37014 6.81525 2.62575 10.53333 5.64122 6.81128 16.92768l12.80971 8.98896c3.34688-3.84894 6.98439-12.74892.67662-22.17363-2.6999-4.03404-7.06037-5.92235-11.32481-6.11315zm-58.85443 22.00093c-5.89069-.32486-13.05117 3.29133-16.31432 17.63144 15.63713-11.2026 15.41935-.0304 22.91735 7.62395l10.81396-17.40269s-5.78804-4.3266-13.58993-7.08549c-1.16034-.41032-2.46767-.69224-3.82706-.76721zm30.44992 57.96233c-6.68583 10.23427-15.2752 10.68371-26.3174 5.04984 6.61193 21.02193 22.78413 21.21038 37.72605 9.91721z" fill="#e20909" fill-rule="evenodd" stroke="#000"/><g stroke="#313131"><g fill-rule="evenodd"><path d="m130.47035 66.768643c7.01402-.296099 14.59356-8.058588 26.63496 5.433236 2.50517-5.051337 2.25397-11.565586-3.30407-15.47545 8.17891-5.308037 16.9591-19.015193 19.42578-27.240989 3.21402-10.717922 5.24747-23.2464571 13.75123-26.3470276 4.5116-1.6450273 8.73538 1.5971002 8.347 7.1430666-.84305 12.038345-5.01648 9.448847-9.4389 25.700429-1.66052 6.102111 1.61778 15.675271 15.73448 13.562696-5.97555-2.757439-6.2914-6.399407-5.6464-11.212843 1.11981-8.356846 15.66253-18.143594 17.18341-31.8714906 1.78896-16.1475765-11.40496-23.4133064-17.95193-24.0374124-8.76631-.835678-19.4482 4.682744-25.90348 15.6341853-3.41096-15.9485753 7.74689-31.4607663 19.84528-38.8797383 10.13721-6.216359 21.65051-11.657378 27.2921-20.612717 6.36071-10.096936 5.08103-22.802036-1.44443-29.061309-.33322 6.039286-4.56284 16.182942-17.22798 22.676903-15.37439 7.883221-30.23773 12.406909-42.65258 34.872626-2.60505-40.193781 40.49865-55.859769 58.40685-68.303398 22.22667-15.44442 14.96712-49.09819 8.2207-53.69255.3905 5.63567.62382 14.45893-6.0916 24.89429-7.76765 12.07062-21.34952 17.54253-37.73794 26.55967-16.29838 8.967641-29.82888 23.293673-36.24582 38.326707-1.7692-10.145983 5.74457-24.8427 15.20857-35.134787 9.80252-10.66017 21.51293-20.00559 28.17271-25.65106 13.26486-11.24465 32.58919-26.80947 34.59489-60.93954 1.41545-24.00344-10.52923-40.81194-27.27485-47.82749-9.82084-4.11431-24.21808-4.73049-34.13234-2.50743-4.97417 1.11533-9.9329 2.83109-14.589 5.62936-3.27834 1.97024-8.93468.75775-8.36571-4.96358.67045-6.74207 10.29747-7.23928 11.32282-15.14037.84583-6.51791-4.10892-11.75801-9.35216-14.35027 1.3123 3.99244-.11067 8.62479-2.86181 13.24552-3.58577 6.02254-11.70625 5.38112-12.76363 16.77644-.52397 5.6995 3.27743 12.12477 8.67131 13.71979.63943.39102 1.71184 1.25266 1.25606 1.87807-5.95304 8.16895-7.02948 18.97614-6.42647 26.47092 1.00714 12.51582 5.33588 16.92735 5.39175 28.51802.0175 3.61272.0124 14.03031-4.33396 20.89744-5.35778 8.46509-9.94409 11.81945-15.04999 14.48618 7.20368.45199 14.90451-1.21914 20.2946-3.3105 9.96306-3.86565 18.41807-16.17362 20.09941-24.33352 1.11954-5.43327.86722-10.51245.15338-15.46054 4.87703 1.64958 13.36993 1.88491 19.3112-2.05063 6.10078-4.04119 9.47895-12.77232 4.99216-20.38691-1.54962 7.71704-6.70711 10.51634-14.44937 10.82353-7.36762.29234-13.25647-4.30962-13.89966-12.3108-.94803-11.79292 9.07863-20.3848 22.86122-20.54857 18.258-.21696 28.17748 13.18978 27.20864 30.73245-.97111 17.58393-9.67981 30.52683-21.99289 40.99291-10.57863 8.99179-21.71061 17.72646-32.71943 28.65339-8.58612 8.52226-25.50029 26.588929-26.06746 50.543709-.42062 17.751244 4.74285 32.105527 12.82142 45.038266 8.07851 12.9328146 12.86391 23.7073424 16.31022 33.735751 4.1423 12.054157 2.2013 28.503845-9.47377 33.117083-12.09306 4.778447-28.50969-2.461312-34.3368-18.237733-2.07273 11.5286-4.899857 35.373871 6.77369 34.480805 7.06866 2.434446 13.43587 5.6835 21.44861 5.345212z"/><path d="m-45.053702 27.793734c-21.944259-.0085-35.547685 14.642453-38.359964 30.989633-1.207028 7.016231-2.347608 11.817569-5.627782 14.579091-8.0459 6.773721-20.978742 8.207552-22.183842 7.7561 7.72797 9.2073 14.564225 12.289905 24.871831 10.054334-2.147238 11.334548 8.281482 25.395658 13.667951 37.002328 1.81861 3.91873-7.319095 6.68067-18.301545 8.56573-3.574004.61347-10.584487 5.0152-14.019077 5.97255-3.55722.99153-8.92929.64553-10.9923-.62948-2.1325-1.31796-9.8257-9.99032-15.67025-11.91015-5.43868-1.78652-12.24777-.7625-13.51258 3.66725-2.01467 7.06804 7.38274 9.89508 8.63576 12.39403 1.21182 2.41682-.87175 4.35083-2.63378 3.33683-2.09051-1.20302-8.8303-8.69035-12.99527-7.36776-3.13835.99657-5.72243 3.81149-6.51242 11.60845-.6696 6.60877 10.14418 8.62707 14.23357 8.93949 3.32929.25433 2.89554 3.55031.88939 4.17652-2.15837.67375-11.58891-4.97517-12.12498-.49709-.53607 4.4781-1.23796 14.23794 4.67874 17.66374 4.65179 2.69338 22.14002-2.42129 24.14311-2.92594 2.38509-.6009 4.71385-1.30145 5.48986-.58389 5.2748 4.8775-5.51726 6.61893-1.86301 11.14771 3.88316 4.81247 9.49604 5.25543 14.67178 6.10803 10.634695 1.75181 5.23955-18.39999 7.5913-18.52343 5.075005-.70505 7.062156-1.48094 11.153132 1.82094s10.236945 13.51112 18.850157 16.17278c-.750821-7.80549-.132651-14.82607 2.504923-20.07207 2.991924 8.95863 13.7762 13.39849 24.728272 16.25259-5.481314-6.40584-6.978864-18.02907-5.224789-19.80248 7.199263 8.01897 13.968596 10.93835 27.567696 10.54915-4.048299-3.00622-6.118193-11.77876-5.224044-14.24632 1.371686-3.78536 4.338651 2.80633 7.985041-4.88455 2.298644-4.84819-1.409754-10.69179-2.946664-13.71317-7.048403-13.85636-8.114213-45.94015 24.4412092-53.516696 17.7057978-4.120636 44.4621068-14.407755 46.7781878-17.320371 18.458653-23.212978 1.417991-42.826861-8.105646-54.081157-24.093806 11.497457-58.889295 1.704341-86.583967 1.317278z"/><path d="m-150.80348-146.40466c.51409 5.86794 4.30827 14.3404 2.67723 21.36312 4.22814-3.99753 8.10988-9.04936 8.58996-14.49847 6.39167 11.2469-1.75025 26.93852-1.13146 39.18229 3.26865-4.24523 11.19178-10.49731 12.97437-16.14785 6.42806 13.90754-8.23016 17.055213-.61592 44.549929 2.64932-9.9275 9.37649-18.13737 12.20634-24.94385 2.17033 18.896766 20.326487 31.374387 30.557485 28.243369 23.460075 30.58895 51.710192 18.679012 50.34566-14.593813 0 0-22.175544-49.052715-27.910292-53.285005-6.227186-4.59571-14.149465-8.74452-23.184096-14.51102-10.196983-6.50839-18.565847-11.73379-26.473677-19.04848-7.90783-7.31471-11.71423-13.87728-16.8934-19.0135-7.29132-7.23086-12.13403-15.26071-12.28911-18.98944-.18976-4.56257 4.22919-5.78542 5.86807-13.03069 1.95009-8.62108-6.91056-17.86681-15.15163-16.58566-4.69815.73037-5.20268 9.47282-7.73883 11.23202-.59781.41467-1.31416.55827-2.23324.28955-4.81826-1.40879-.8531-15.41131-8.63777-15.965-7.78468-.55369-13.98952 1.814-18.1974 9.44843-3.38254 6.137 8.34057 10.32332 8.78209 13.92879.099.80813-1.60014 1.97989-2.42288 1.95979-.54313-.0133-8.92296-9.04787-15.4796-6.86203-5.10937 1.70335-10.65076 7.69219-8.90355 15.99879 1.51082 7.18273 11.02061 7.69507 15.58683 8.18309 5.41411.57865 17.51896 16.03178 16.54231 22.99372-.29917 5.61186-8.63923 3.40337-10.3937 9.83818-2.24984 8.25171 4.20569 17.49939 11.46823 16.40046 5.43377-.82222 11.26907-7.89583 13.74025-8.12753 5.99045-.0333 7.74843 5.47559 8.31773 11.99081z"/><path d="m-6.465714 16.758915c14.2984021 5.371236 26.427257 18.613946 27.995694 28.131349-8.239163 16.422576-2.803458 23.765007 8.971821 21.800202 9.609878-1.598599 9.625759-9.270859 7.094568-18.122592-2.258267-7.89726-5.694786-13.232004-13.011138-18.880574-9.553252-7.375586-26.9444644-13.650856-31.050945-12.928385z"/><path d="m124.42982 229.61229c5.25887-17.2633 23.81811-5.38208 33.44787-19.44635-5.85139-.37972-12.83606-4.6172-14.79447-10.90323 15.263.45623 22.15542-4.32617 29.99968-10.98825-6.1455.0363-15.21533-1.49686-16.50238-10.37069 7.34912-.14596 22.74118-.20943 31.19997-13.30754-14.92375 2.49067-22.18493-2.46539-21.49728-6.7511 2.03264-12.66837 9.43748-11.98679-.60738-21.25642-2.82237-2.60454-14.81019-4.92869-13.83341-11.37831.51805-3.4206 10.42679-9.5468 15.2543-12.21343-3.09104-.33965-10.92724-4.41323-18.08162-2.41487-7.15438 1.99838-13.53145 2.88788-24.21587-8.23937-4.91275-5.138172-7.33297-6.495269-13.22131-18.545066-1.18365-2.422204-7.32203-22.887155-5.27049-22.513013 6.99153-9.58115.47553-24.364177-3.97637-35.357369-4.334699-11.72683-8.17128-23.5756408-16.641803-35.8535107-6.506464-9.4309993-23.843802-25.5513223-24.774908-38.1752873-1.217395-16.362919-1.526617-33.830642-.51502-42.341529 2.771892-23.320805 3.748672-27.751195-18.340292-35.258835-13.058245-4.43824-58.416047-16.08337-79.886888 7.66841-10.970432 12.13586-22.779104 11.32217-32.321376 27.528666-9.542261 16.206501-9.758098 11.048966-18.022408 18.781778-8.26431 7.732811-15.747085 13.733668-18.113895 15.267653-4.73365 3.067969-6.40107 3.680701-14.36648 9.731602-7.96542 6.050892-15.07934 11.705936-16.40697 13.190574-2.65527 2.969257-16.87018 8.550461-20.0381 8.18857-1.9546-.223294-7.5192-9.823877-11.69241-10.600397-5.23087-.973332-17.55037 2.715691-17.69546 9.362813-.0777 3.560586 9.49472 6.940769 7.98066 10.93311-1.03061 2.717529-8.57141 5.40686-11.91642 4.637342-1.91189-.43984-7.42863-3.645831-11.95816-2.429677-8.46314 2.272317-11.0438 14.4917736-6.02794 19.2533495 2.5496 2.4203471 12.47421-.549579 13.96486.3173787 1.68938.9825489 2.77122 1.7555256 1.86526 3.6656787-.98277 2.0721691-13.26837 1.5191221-14.81803 4.2180941-5.27639 9.189676 2.23274 22.293262 11.83873 18.11705 3.22654-1.402748 6.31224-3.757313 8.47206-5.327195 1.91661-1.392919 3.70118.355293 3.89487 1.406528.44093 2.392988-8.41987 7.989488-7.23448 11.619523 2.27996 6.981935 17.12088 8.803338 20.7297 2.974356 2.80057-4.523476 8.49915-15.25085 9.57084-16.707224.53586-.728192 1.36784-2.359776 8.00778-4.13563 16.56709-3.986677 22.09929 3.226045 28.11667 17.234768 5.39255-4.556405 13.90153-18.012514 9.55073-25.380071 6.15726 6.512276 16.516635 13.929651 25.420877 14.862062-3.586455-9.877786 1.034085-18.194566 2.457581-21.5772375 5.689479 5.8986955 21.052664 12.1830875 32.051674 9.8342535-9.46096-5.923077-14.85938-16.62103645-4.266331-21.6140209 10.593057-4.992975 13.292545-7.8709841 15.724735-17.2522131 2.43218-9.381228 14.614391-6.443543 19.236703.181978 4.622302 6.62553 6.475116 9.074169 11.8387 15.109793 5.770913 6.49400212 13.5325394 12.8822899 18.6082595 16.809554 5.7354935 4.437742 11.0729885 9.299208 15.8924755 16.315797 6.173585 8.988002 9.0817 19.159567 8.759481 31.527082-1.408048 11.917318 3.91234 22.455213 2.128547 34.064953-1.069627 4.409204-7.037319 10.790699-1.270817 22.092399s7.385156 34.64488-.348176 42.90884c20.372222-1.01689 28.86972-18.52744 25.614607-33.82878 7.774502 6.6045 13.068566 8.36479 19.376507 14.04001 2.389494 2.14981 13.21688 12.31759 15.923767 14.44468 5.517734 5.39037 4.771136 4.44867 13.28833 11.1055.61109 1.2045 2.16146 9.42776 2.15451 11.54729-.002.61307.33555 5.51349-1.40369 11.1389-1.53894 4.97758-4.39007 10.54958-7.313635 12.354-3.009313 1.85736-3.851482-5.50901-7.314891-4.91538-4.581454.78526-13.908896 7.65359-12.664573 12.07314 1.210477 4.29933 11.895101 2.67716 7.959876 4.8541l-5.031724 2.78351c-3.093168 1.71111-4.10763-2.46562-10.653039-1.45694-8.043902 1.23957-10.201187 11.16797-5.806635 16.54525 2.891046 3.53755 9.074094 1.30358 9.074094 1.30358 6.869466-1.5853 9.226037.88174.561176 3.12995 0 0-8.362624 2.34132-7.318369 8.97153.71229 4.5225 6.973153 9.29967 10.381547 8.72337 4.523366-.76484 9.589491-3.63011 11.06345-6.20534 2.764531-4.83007 5.05063-1.92732 3.105874 1.91742-1.104896 2.18432-3.008964 6.8492.1015 9.21305 3.790991 2.88102 12.890729 1.23618 15.729109-1.50992 4.34599-4.20466 3.71943-10.92791 2.65616-12.85067 7.20582-2.22448 11.03221-6.70925 13.15998-10.84437z"/></g><path d="m-134.75703 7.4011126s58.32263-18.6480896 95.398633-57.9405496m181.805867 189.119697s9.4669.66428 13.22427 10.26793c3.91806 10.01435-6.20992 15.34808-6.20992 15.34808m-187.686918-23.49796s5.915528 8.24579 1.425081 16.93361c-4.682508 9.05938-15.436575 3.74216-15.436575 3.74216" fill="none"/><g fill-rule="evenodd"><path d="m28.044978-156.0211c-7.7752-1.95144-15.276258-3.81977-21.4471776-7.75722-5.74824784-3.66777-14.4173276-5.05486-21.4366714-3.63384-11.292298 2.28604-18.588517 4.23773-30.062106 1.228-9.661963-2.5345-12.543078-8.87268-10.711608-19.5895 2.0146 6.24194 5.423506 9.25677 8.681508 10.19633 4.191448 1.20873 11.674207 1.22037 17.524267-.85691 30.28611927-10.75419 50.099778-1.69438 57.451788 20.41314z"/><path d="m-42.211716-198.96565c-1.243196 2.99942-1.036189 12.33057 4.920845 15.29529.944197-5.29772 3.519142-11.43453 5.431836-14.56508zm9.045185 34.63682c-.756808 3.25681.171313 7.40131 1.666517 9.94048l7.171219-1.64727c-3.654329-2.0041-6.903973-4.97233-8.837736-8.29321z"/><path d="m62.191123-30.03489c-3.011205-4.506283-2.548261-11.306417-.793415-16.913531 2.392862-7.645772 7.960713-13.88552 9.761795-22.370071 2.097491-9.925666-2.908733-12.323965-2.125975-17.217395 4.139896 7.370564 16.077805 7.934578 19.669445-1.333964-5.311357-.751254-10.110076-4.278889-11.821831-9.252456-3.082676-8.956833 4.521975-12.053523 5.751065-20.729293 1.451474-10.23451-4.61427-14.69397-5.001494-19.02712 5.088832 1.55321 11.268006-1.30231 12.00546-6.65308-2.702085 1.00184-5.472145.30504-7.17624-2.671-2.043546-3.56888-.40736-8.26659-1.09413-12.14628-1.27528-7.20396-6.780414-8.0878-7.486132-12.57429 5.365726 2.71525 12.512869-1.19034 12.642722-8.07725-1.988838 1.29121-4.567854 1.46394-6.710186.1292-3.853043-2.40056-1.798002-7.00535-3.235219-11.22417-1.040901-3.05547-7.195491-6.57952-7.539352-9.9169 4.637761 1.26291 9.058659-1.45912 9.140665-7.16055-2.417522 1.07544-7.888791.29451-9.697929-1.84571-8.467125-10.01671-14.424979-18.30625-24.405936-25.35418-8.091557-5.71376-29.010331-9.60651-45.2210146-10.57976-11.9471144-.71727-22.0945414 4.44656-29.4243904 8.20335-6.388328 3.27423-2.401032 6.589-.740931 9.7161-5.4608-.67244-10.12501-1.60923-15.290345.39959-2.979808 1.15886-6.865962 3.68678-6.551312 5.36295.181829.96871 2.303244 4.11815 4.115049 2.96639-.117491 3.7574-.865121 5.89145-.75319 9.7897.147191 5.12696 3.080131 9.8226 7.253676 10.88629 11.067322 2.82067 21.222636 2.24103 31.417478-1.65055 13.8029521-5.26888 18.1500712 2.54398 19.2511734 10.97113 1.1101197 8.49628-1.6851932 19.02259-9.3285049 25.60756-3.9680649 3.41862-11.2480585 6.79185-18.3272825 6.4762-3.97354-.17717-7.810046-2.15509-11.292637-.62777-1.775613.77871-2.236729 6.62335-2.771521 9.82285-.417574 2.49748 1.502111 3.86862 4.154822 4.51325 6.148965 1.4943 4.555228 7.91308 8.223539 8.93541.245272-1.67828 1.874692-8.4221 3.384822-8.46554 6.069617-.17457 20.0199486-1.90122 19.5891923.39288-1.08710958 5.77026-7.6839704 8.5982-22.6801593 11.31131-11.633576 2.10476-34.138729-4.66825-30.865349-31.31666-15.211449 8.30122-20.036739 33.28829-7.668234 40.97866-4.449901-.60656-9.372264-.27043-14.762215.61298-8.008807 1.31266-16.541456-5.18635-21.706075-11.53241-2.381743 18.9711 1.030056 29.70883 10.61203 35.933604 11.386674 7.397157 19.300454 6.092245 27.02382 7.484549-6.496114 3.3032-11.168135 9.368494-17.115097 14.815657-6.682061 6.120459-16.351279 11.01568-26.96838 9.599074 4.441791 9.154906 13.003405 14.777842 23.43305 16.564605 14.072751 2.413479 25.790744-1.404818 35.561558-8.42116-1.672652 9.017787-10.988116 12.176368-12.828783 23.076329-1.644836 9.740357 2.7278 18.513073 12.510882 20.854332-2.640414-15.624376 13.046577-19.921763 22.312845-23.15002 8.769196-3.055065 16.4120644-7.378272 22.757595-14.614394.9027554 9.233684-11.423093 15.605811-5.857004 29.18971 3.74288245 9.134373 13.0725934 13.203113 23.258625 13.2880735-6.490319-4.4485185-7.959686-13.5239105-3.382645-21.5650095 6.572597-11.54705 14.673077-12.089305 23.2574-25.503764 2.277312-3.558675 3.894285-9.476118 5.196439-15.137643 3.489583 6.462817 1.354317 12.288279.05644 17.418386-2.438194 9.637332 5.181193 22.600508 18.281329 21.731801z"/><path d="m27.684553-235.00746c-1.466136-15.31326 12.688356-16.45163 23.451365-20.66756-1.765653 9.76012-1.332937 22.55978-8.02801 25.50428"/></g><path d="m49.490498-245.56705s-13.088923-2.63568-15.148412 12.00697m-82.640681 13.80662s1.660563 3.92467 4.377856 1.66044m12.608839-8.94022c4.50623 6.43315 7.886925 2.52129 11.773522.41401 14.1517216-7.67293 17.0465753-2.13397 24.1067005 2.08481m-2.8052632 82.88152c16.4615897 1.04296 23.2875717-19.19822 23.2875717-19.19822s7.448215 9.73089 3.142754 17.66538c9.240101-6.49289 14.315374-19.46525 5.64556-36.9443 5.373085.82123 10.699302 6.44709 11.580668 9.6751 3.495566-12.60317.435298-29.83549-11.532528-39.22606" fill="none"/><path d="m-26.103287-222.89586c4.394411 2.91736 7.691914 4.49504 11.852229 3.41377 6.7082268-1.74347 8.8969945-5.46422 11.9931819-5.10347-2.5779041-8.48303-10.9146659-5.56442-17.2805019-2.03367-2.844886 1.57789-4.674198 2.85255-6.564909 3.72337z"/><path d="m-15.840904-227.99837c-.556284.33267.896829 3.77848 2.129038 6.67656-1.113484-.0583-4.363477-1.65566-4.647692-4.99832.780129-2.15598 2.518654-1.67824 2.518654-1.67824z" fill="#313131" fill-rule="evenodd"/></g></g><path d="m-298.5-298.5h597v258.5c0 286.2-298.5 398.39-298.5 398.39s-298.5-112.19-298.5-398.39z" fill="url(#a)" height="100%" stroke-width=".999916" transform="matrix(1 0 0 1.0001675 0 .04997)" width="100%"/><path d="m-298.5-298.50001h597v258.502973c0 286.203287-298.5 398.394577-298.5 398.394577s-298.5-112.19129-298.5-398.394577z" fill="none" stroke="#000" stroke-width="3"/></svg>